<svg width="20" height="15" viewBox="0 0 20 15" fill="none" xmlns="http://www.w3.org/2000/svg">
<path d="M0.625 0.0996094C2.29251 0.0996094 3.64941 1.45745 3.64941 3.125V11.7363C3.64941 12.902 4.59806 13.8495 5.7627 13.8496H18.8506V6.15039H6.77539V10.0996H16.875C17.1648 10.0996 17.4003 10.3352 17.4004 10.625C17.4004 10.9149 17.1649 11.1504 16.875 11.1504H6.25C5.96016 11.1503 5.72461 10.9149 5.72461 10.625V5.62598C5.72461 5.33612 5.96016 5.10063 6.25 5.10059H19.3838C19.6693 5.10561 19.8994 5.33826 19.8994 5.625V14.375C19.8994 14.6649 19.6639 14.9004 19.374 14.9004H5.7627C4.01926 14.9003 2.60059 13.4808 2.60059 11.7373V3.12598C2.60059 2.03728 1.71372 1.15039 0.625 1.15039C0.335251 1.15024 0.0996094 0.914785 0.0996094 0.625C0.0997626 0.335345 0.335345 0.0997627 0.625 0.0996094Z" fill="#6A7282" stroke="white" stroke-width="0.2"/>
</svg>
