<svg width="19" height="20" viewBox="0 0 19 20" fill="none" xmlns="http://www.w3.org/2000/svg">
<path d="M0.5 8.49948C0.49993 8.20855 0.563334 7.9211 0.685788 7.6572C0.808242 7.39329 0.986798 7.15928 1.209 6.97148L8.209 0.97248C8.56999 0.667388 9.02736 0.5 9.5 0.5C9.97264 0.5 10.43 0.667388 10.791 0.97248L17.791 6.97148C18.0132 7.15928 18.1918 7.39329 18.3142 7.6572C18.4367 7.9211 18.5001 8.20855 18.5 8.49948V17.4995C18.5 18.0299 18.2893 18.5386 17.9142 18.9137C17.5391 19.2888 17.0304 19.4995 16.5 19.4995H2.5C1.96957 19.4995 1.46086 19.2888 1.08579 18.9137C0.710714 18.5386 0.5 18.0299 0.5 17.4995V8.49948Z" stroke="#6A7282" stroke-linecap="round" stroke-linejoin="round"/>
</svg>
