<svg width="32" height="34" viewBox="0 0 32 34" fill="none" xmlns="http://www.w3.org/2000/svg">
<path d="M8.33437 0C7.02865 0 5.95312 1.07552 5.95312 2.38125V25.2016C5.95312 26.5073 7.02865 27.5828 8.33437 27.5828H29.3687C30.6745 27.5828 31.75 26.5073 31.75 25.2016V7.14375C31.75 5.91708 31.2624 4.74002 30.395 3.87263L27.8774 1.35496C27.01 0.487569 25.8329 0 24.6062 0H8.33437ZM2.38125 5.75469C1.07552 5.75469 0 6.83021 0 8.13594V30.9562C0 32.262 1.07552 33.3375 2.38125 33.3375H23.4156C24.7214 33.3375 25.7969 32.262 25.7969 30.9562V29.1703H8.33437C6.1519 29.1703 4.36562 27.384 4.36562 25.2016V5.75469H2.38125ZM13.2953 6.44922H24.4078C24.512 6.44922 24.6153 6.46975 24.7116 6.50964C24.8079 6.54953 24.8954 6.608 24.9691 6.6817C25.0428 6.75541 25.1013 6.84291 25.1411 6.93921C25.181 7.03551 25.2016 7.13873 25.2016 7.24297C25.2016 7.3472 25.181 7.45042 25.1411 7.54672C25.1013 7.64303 25.0428 7.73053 24.9691 7.80423C24.8954 7.87794 24.8079 7.93641 24.7116 7.9763C24.6153 8.01619 24.512 8.03672 24.4078 8.03672H13.2953C13.0848 8.03672 12.8829 7.95309 12.734 7.80423C12.5852 7.65538 12.5016 7.45348 12.5016 7.24297C12.5016 7.03245 12.5852 6.83056 12.734 6.6817C12.8829 6.53284 13.0848 6.44922 13.2953 6.44922ZM13.2953 10.8148H24.4078C24.512 10.8148 24.6153 10.8354 24.7116 10.8753C24.8079 10.9152 24.8954 10.9736 24.9691 11.0473C25.0428 11.121 25.1013 11.2085 25.1411 11.3048C25.181 11.4011 25.2016 11.5044 25.2016 11.6086C25.2016 11.7128 25.181 11.816 25.1411 11.9123C25.1013 12.0086 25.0428 12.0962 24.9691 12.1699C24.8954 12.2436 24.8079 12.302 24.7116 12.3419C24.6153 12.3818 24.512 12.4023 24.4078 12.4023H13.2953C13.0848 12.4023 12.8829 12.3187 12.734 12.1699C12.5852 12.021 12.5016 11.8191 12.5016 11.6086C12.5016 11.3981 12.5852 11.1962 12.734 11.0473C12.8829 10.8985 13.0848 10.8148 13.2953 10.8148ZM13.2953 15.1805H24.4078C24.512 15.1805 24.6153 15.201 24.7116 15.2409C24.8079 15.2808 24.8954 15.3392 24.9691 15.413C25.0428 15.4867 25.1013 15.5742 25.1411 15.6705C25.181 15.7668 25.2016 15.87 25.2016 15.9742C25.2016 16.0785 25.181 16.1817 25.1411 16.278C25.1013 16.3743 25.0428 16.4618 24.9691 16.5355C24.8954 16.6092 24.8079 16.6677 24.7116 16.7075C24.6153 16.7474 24.512 16.768 24.4078 16.768H13.2953C13.0848 16.768 12.8829 16.6843 12.734 16.5355C12.5852 16.3866 12.5016 16.1847 12.5016 15.9742C12.5016 15.7637 12.5852 15.5618 12.734 15.413C12.8829 15.2641 13.0848 15.1805 13.2953 15.1805ZM13.2953 19.5461H24.4078C24.512 19.5461 24.6153 19.5666 24.7116 19.6065C24.8079 19.6464 24.8954 19.7049 24.9691 19.7786C25.0428 19.8523 25.1013 19.9398 25.1411 20.0361C25.181 20.1324 25.2016 20.2356 25.2016 20.3398C25.2016 20.4441 25.181 20.5473 25.1411 20.6436C25.1013 20.7399 25.0428 20.8274 24.9691 20.9011C24.8954 20.9748 24.8079 21.0333 24.7116 21.0732C24.6153 21.1131 24.512 21.1336 24.4078 21.1336H13.2953C13.1911 21.1336 13.0879 21.1131 12.9916 21.0732C12.8953 21.0333 12.8078 20.9748 12.734 20.9011C12.6603 20.8274 12.6019 20.7399 12.562 20.6436C12.5221 20.5473 12.5016 20.4441 12.5016 20.3398C12.5016 20.1293 12.5852 19.9274 12.734 19.7786C12.8829 19.6297 13.0848 19.5461 13.2953 19.5461Z" fill="white"/>
</svg>
