<svg width="72" height="72" viewBox="0 0 72 72" fill="none" xmlns="http://www.w3.org/2000/svg">
<path d="M65.3338 41.0151C67.9614 25.0408 56.9667 9.98935 40.7765 7.39682C24.5863 4.80429 9.33148 15.6524 6.70392 31.6267C4.07635 47.601 15.071 62.6524 31.2612 65.245C47.4514 67.8375 62.7062 56.9894 65.3338 41.0151Z" fill="#DE5C5C"/>
<path d="M36.0152 7.02034C52.4166 7.02034 65.7133 20.1387 65.7133 36.3224C65.7133 52.5061 52.4176 65.6245 36.0152 65.6245C19.6138 65.6245 6.31715 52.5061 6.31715 36.3224C6.31715 20.1387 19.6138 7.02034 36.0152 7.02034ZM36.0152 5.65234C18.8753 5.65234 4.93066 19.4111 4.93066 36.3224C4.93066 53.2338 18.8753 66.9925 36.0152 66.9925C53.1551 66.9925 67.0997 53.2338 67.0997 36.3224C67.0997 19.4111 53.1551 5.65234 36.0152 5.65234Z" fill="#EB2122"/>
<path d="M60.5395 19.8008C59.5801 32.3413 48.9708 42.2245 36.0147 42.2245C23.0586 42.2245 12.4493 32.3413 11.4899 19.8008C8.22757 24.5048 6.31665 30.1937 6.31665 36.3243C6.31665 52.507 19.6133 65.6254 36.0147 65.6254C52.4161 65.6254 65.7127 52.507 65.7127 36.3243C65.7127 30.1937 63.8018 24.5048 60.5395 19.8008Z" fill="#DE5C5C"/>
<path d="M23.5312 27.2852L26.3487 50.2917C26.5141 51.6434 27.662 52.6593 29.024 52.6593H43.0111C44.3731 52.6593 45.5209 51.6434 45.6863 50.2917L48.5038 27.2852H23.5312ZM31.27 48.9796C31.2482 48.9814 31.2263 48.9823 31.2049 48.9823C30.7937 48.9823 30.4451 48.6663 30.4114 48.2497L29.0796 31.8238C29.0442 31.385 29.3709 31.0006 29.8098 30.9649C30.248 30.9297 30.6327 31.2562 30.6684 31.6951L32.0002 48.1208C32.0356 48.5595 31.7087 48.944 31.27 48.9796ZM36.8144 48.1852C36.8144 48.6254 36.4577 48.9822 36.0175 48.9822C35.5772 48.9822 35.2205 48.6254 35.2205 48.1852V31.7593C35.2205 31.3193 35.5772 30.9623 36.0175 30.9623C36.4577 30.9623 36.8144 31.3193 36.8144 31.7593V48.1852ZM42.9553 31.8238L41.6235 48.2497C41.5898 48.6663 41.2409 48.9822 40.8299 48.9822C40.8083 48.9822 40.7867 48.9813 40.7648 48.9795C40.3261 48.944 39.9993 48.5594 40.0347 48.1207L41.3665 31.695C41.4021 31.2561 41.7868 30.9293 42.2251 30.9649C42.664 31.0006 42.9907 31.385 42.9553 31.8238Z" fill="white"/>
<path d="M49.5623 23.5406H42.3152C41.9891 23.5406 41.6988 23.3343 41.5915 23.0264L41.021 21.389C40.7291 20.5512 39.9368 19.9883 39.0495 19.9883H32.9876C32.1004 19.9883 31.3081 20.5512 31.0162 21.389L30.4456 23.0264C30.3383 23.3343 30.048 23.5406 29.7219 23.5406H22.4748C22.108 23.5406 21.8105 23.838 21.8105 24.2049V25.4816C21.8105 25.8484 22.1079 26.1459 22.4748 26.1459H49.5623C49.9292 26.1459 50.2266 25.8485 50.2266 25.4816V24.2049C50.2266 23.838 49.9292 23.5406 49.5623 23.5406ZM32.78 22.0174C32.826 21.8856 32.9506 21.7971 33.0902 21.7971H38.9469C39.0865 21.7971 39.2112 21.8856 39.2571 22.0174L39.7878 23.5406H32.2493L32.78 22.0174Z" fill="white"/>
</svg>
