<?xml version="1.0" encoding="UTF-8" standalone="no"?>
<!DOCTYPE svg PUBLIC "-//W3C//DTD SVG 1.1//EN" "http://www.w3.org/Graphics/SVG/1.1/DTD/svg11.dtd">
<svg width="100%" height="100%" viewBox="272 262 500 500" version="1.1" xmlns="http://www.w3.org/2000/svg" xmlns:xlink="http://www.w3.org/1999/xlink" xml:space="preserve" xmlns:serif="http://www.serif.com/" style="fill-rule:evenodd;clip-rule:evenodd;stroke-linejoin:round;stroke-miterlimit:2;">
    <g id="Layer1">
        <path d="M772,387L772,637C772,705.989 715.989,762 647,762L397,762C328.011,762 272,705.989 272,637L272,387C272,318.011 328.011,262 397,262L647,262C715.989,262 772,318.011 772,387Z" style="fill:rgb(31,58,137);"/>
    </g>
    <g transform="matrix(0.040714,0,0,0.040714,543.009823,517.713023)">
        <g transform="matrix(1,0,0,1,-4900,-3802.083333)">
            <clipPath id="_clip1">
                <rect x="0" y="0" width="9800" height="7604.167"/>
            </clipPath>
            <g clip-path="url(#_clip1)">
                <g transform="matrix(4.166667,0,0,4.166667,-1806.974604,-2391.311196)">
                    <g id="Screenshot-2026-02-10-at-5.11.07-AM.png" serif:id="Screenshot 2026-02-10 at 5.11.07 AM.png" transform="matrix(4.591033,0,0,4.591033,-170.925878,-4.498795)">
                        <path d="M131.862,129.376C130.04,117.368 139.468,130.36 330.857,284.067C464.376,391.298 465.418,393.678 467.438,392.344C491.547,376.43 639.946,268.123 643.177,269.982C645.959,271.583 643.383,272.976 588.075,330.099C555.999,363.227 556.723,363.618 523.816,395.793C498.522,420.523 467.727,456.829 463.95,453.032C425.167,414.044 345.904,337.391 335.575,327.402C334.374,326.329 333.174,325.255 331.973,324.182C274.761,270.219 188.09,183.592 175.718,171.226C150.89,146.869 137.744,133.558 131.862,129.376Z" style="fill:white;"/>
                        <path d="M131.862,129.376C137.744,133.558 150.89,146.869 175.718,171.226C174.446,173.082 174.898,173.209 155.463,363.497C147.17,444.698 144.728,462.423 148.577,459.638C318.649,336.613 319.328,337.327 331.973,324.182C333.174,325.255 334.374,326.329 335.575,327.402C330.462,332.41 145.867,516.733 143.253,521.382C142.869,522.064 136.25,528.587 136.312,514.501C136.402,493.868 130.851,133.926 131.862,129.376Z" style="fill:rgb(241,199,75);"/>
                    </g>
                </g>
            </g>
        </g>
    </g>
</svg>
