<?xml version="1.0" encoding="UTF-8" standalone="no"?>
<!DOCTYPE svg PUBLIC "-//W3C//DTD SVG 1.1//EN" "http://www.w3.org/Graphics/SVG/1.1/DTD/svg11.dtd">
<svg width="100%" height="100%" viewBox="0 0 956 740" version="1.1" xmlns="http://www.w3.org/2000/svg" xmlns:xlink="http://www.w3.org/1999/xlink" xml:space="preserve" xmlns:serif="http://www.serif.com/" style="fill-rule:evenodd;clip-rule:evenodd;stroke-linejoin:round;stroke-miterlimit:2;">
    <g id="Background">
        <path d="M719.258,408.504C711.869,524.744 614.354,621.986 498.506,629.251C311.925,642.919 179.539,448.225 267.866,277.686C348.286,122.412 579.646,99.547 683.365,262.588C725.268,328.459 720.158,396.517 719.258,408.504Z" style="fill:rgb(240,78,75);"/>
        <path d="M382.374,334.706C390.061,339.281 474.655,389.631 479.528,390.071C483.972,390.472 483.737,388.998 568.749,339.931C612.141,314.886 614.776,311.221 614.917,315.401C614.921,315.539 614.899,454.412 614.897,466.5C614.893,489.386 597.898,485.768 558.5,485.768C361.104,485.768 361.05,485.948 355.568,484.325C343.316,477.457 345.114,474.357 345.114,422.5C345.114,314.825 345.072,314.711 345.413,314.418C345.787,314.097 346.064,314.004 382.374,334.706Z" style="fill:rgb(254,254,254);"/>
        <path d="M353.658,302.207C350.916,300.67 350.396,300.254 350.422,299.496C350.455,298.529 353.273,296.787 353.563,296.607C357.87,293.945 358.289,294.265 501.5,294.265C603.959,294.265 605.345,293.572 609.267,298.676C610.845,300.73 602.157,304.697 594.763,308.969C481.16,374.598 481.203,375.315 479.42,374.83C478.229,374.505 357.433,304.449 353.658,302.207Z" style="fill:rgb(255,254,254);"/>
    </g>
</svg>
