<?xml version="1.0" encoding="UTF-8" standalone="no"?>
<!DOCTYPE svg PUBLIC "-//W3C//DTD SVG 1.1//EN" "http://www.w3.org/Graphics/SVG/1.1/DTD/svg11.dtd">
<svg width="100%" height="100%" viewBox="0 0 824 740" version="1.1" xmlns="http://www.w3.org/2000/svg" xmlns:xlink="http://www.w3.org/1999/xlink" xml:space="preserve" xmlns:serif="http://www.serif.com/" style="fill-rule:evenodd;clip-rule:evenodd;stroke-linejoin:round;stroke-miterlimit:2;">
    <g id="Background">
        <path d="M393.501,123.967C451.506,125.26 511.198,139.071 571.904,196.072C604.928,227.081 634.177,275.49 644.607,327.476C683.916,523.406 501.681,676.733 325.44,626.709C146.289,575.859 83.005,362.95 191.031,224.13C269.395,123.426 375.836,124.367 393.501,123.967Z" style="fill:rgb(106,221,45);"/>
        <path d="M306.751,233.249C310.418,236.916 314.084,240.582 317.751,244.249C353.928,279.909 354.057,279.826 356.27,283.637C370.983,308.965 328.332,314.118 331.104,345.545C331.505,350.101 347.551,396.976 409.721,435.128C446.274,457.56 456.088,426.417 469.811,417.987C486.356,407.822 500.244,426.679 500.282,426.717C548.657,475.19 551.417,475.584 549.772,487.544C549.345,490.657 548.648,495.721 525.199,518.178C438.967,600.759 198.69,370.901 243.865,265.665C250.089,251.165 277.525,226.698 283.621,224.896C297.382,220.828 306.14,232.665 306.751,233.249Z" style="fill:white;"/>
    </g>
</svg>
