<?xml version="1.0" encoding="UTF-8" standalone="no"?>
<!DOCTYPE svg PUBLIC "-//W3C//DTD SVG 1.1//EN" "http://www.w3.org/Graphics/SVG/1.1/DTD/svg11.dtd">
<svg width="100%" height="100%" viewBox="0 0 734 722" version="1.1" xmlns="http://www.w3.org/2000/svg" xmlns:xlink="http://www.w3.org/1999/xlink" xml:space="preserve" xmlns:serif="http://www.serif.com/" style="fill-rule:evenodd;clip-rule:evenodd;stroke-linejoin:round;stroke-miterlimit:2;">
    <g id="Background">
        <path d="M366.499,105.967C386.706,106.465 498.94,106.081 576.988,217.151C687.407,374.29 585.42,613.765 367.509,617.958C194.263,621.291 59.225,440.572 127.919,267.666C132.183,256.935 156.389,196.006 216.839,153.974C273.732,114.414 320.956,107.004 366.499,105.967Z" style="fill:rgb(36,211,101);"/>
        <path d="M362.492,529.971C324.601,528.022 310.48,521.112 287.593,510.285C283.91,508.543 199.351,533.799 197.901,532.145C196.921,531.026 220.075,450.776 220.71,446.515C220.957,444.855 193.565,403.245 199.256,345.475C211.369,222.517 343.68,162.628 437.669,209.132C602.128,290.503 544.71,530.507 362.492,529.971Z" style="fill:white;"/>
        <path d="M372.492,221.968C396.874,224.086 443.131,228.419 482.668,283.383C541.358,364.974 487.72,501.346 365.496,501.751C323.643,501.889 291.596,479.246 289.502,479.519C282.615,480.414 238.482,494.403 238.027,491.656C237.695,489.647 252.124,443.166 251.037,440.692C249.34,436.831 220.224,399.657 228.295,341.471C234.262,298.449 273.161,221.063 372.492,221.968Z" style="fill:rgb(36,211,101);"/>
        <path d="M311.506,284.035C324.839,284.224 323.368,288.583 331.986,309.303C337.692,323.021 343.4,326.479 330.189,341.229C321.22,351.242 325.077,353.226 332.988,364.143C353.257,392.113 380.063,401.772 383.599,403.266C396.599,408.758 401.237,378.922 413.39,382.864C414.613,383.26 450.111,398.624 451.583,402.466C454.228,409.369 449.917,440.66 412.498,442.445C400.901,442.999 346.574,434.985 300.882,371.223C284.868,348.877 267.923,318.438 296.625,288.628C302.292,282.742 310.703,284.037 311.506,284.035Z" style="fill:white;"/>
    </g>
</svg>
