<svg width="21" height="22" viewBox="0 0 21 22" fill="none" xmlns="http://www.w3.org/2000/svg">
<path d="M13.9991 4.9996L5.58505 13.5856C5.2099 13.9608 4.99915 14.4696 4.99915 15.0001C4.99915 15.5306 5.2099 16.0395 5.58505 16.4146C5.9602 16.7898 6.46901 17.0005 6.99955 17.0005C7.53009 17.0005 8.0389 16.7898 8.41405 16.4146L16.8281 7.8286C17.5782 7.07844 17.9997 6.061 17.9997 5.0001C17.9997 3.93921 17.5782 2.92177 16.8281 2.1716C16.0779 1.42144 15.0604 1 13.9996 1C12.9387 1 11.9212 1.42144 11.1711 2.1716L2.79205 10.7226C2.22745 11.2781 1.77842 11.9399 1.47085 12.6697C1.16328 13.3996 1.00327 14.1832 1.00005 14.9752C0.996825 15.7673 1.15045 16.5521 1.45206 17.2845C1.75367 18.0168 2.1973 18.6822 2.75736 19.2423C3.31742 19.8024 3.98282 20.246 4.71519 20.5476C5.44756 20.8492 6.23239 21.0028 7.02443 20.9996C7.81647 20.9964 8.60003 20.8364 9.32992 20.5288C10.0598 20.2212 10.7216 19.7722 11.2771 19.2076L19.656 10.6566" stroke="#0E172B" stroke-width="2" stroke-linecap="round" stroke-linejoin="round"/>
</svg>
