<svg width="14" height="15" viewBox="0 0 14 15" fill="none" xmlns="http://www.w3.org/2000/svg">
<path d="M6.74219 0C10.4658 0 13.4843 3.01856 13.4844 6.74219C13.4844 8.41333 12.875 9.94117 11.8682 11.1191L13.7891 13.0352C14.0822 13.3276 14.0833 13.8024 13.791 14.0957C13.4985 14.389 13.0228 14.3892 12.7295 14.0967L10.7734 12.1455C9.64891 12.9858 8.25404 13.4844 6.74219 13.4844C3.01856 13.4843 0 10.4658 0 6.74219C9.99872e-05 3.01862 3.01862 9.99847e-05 6.74219 0ZM6.74219 1.5C3.84705 1.5001 1.5001 3.84705 1.5 6.74219C1.5 9.63741 3.84699 11.9843 6.74219 11.9844C9.63747 11.9844 11.9844 9.63747 11.9844 6.74219C11.9843 3.84699 9.63741 1.5 6.74219 1.5Z" fill="#131313"/>
</svg>
