<svg width="16" height="16" viewBox="0 0 16 16" fill="none" xmlns="http://www.w3.org/2000/svg">
<path d="M4.31494 9.56641H3.56494C2.76929 9.56641 2.00623 9.88248 1.44362 10.4451C0.881012 11.0077 0.564941 11.7708 0.564941 12.5664V14.0664M10.3532 7.77841C10.4027 7.62641 10.4996 7.49422 10.6295 7.40113C10.7595 7.30804 10.9158 7.25891 11.0757 7.26092C11.2355 7.26293 11.3906 7.31597 11.5182 7.4123C11.6458 7.50863 11.7392 7.64321 11.7849 7.79641L12.3377 8.88541C12.3915 8.99127 12.4696 9.08285 12.5657 9.15261C12.6618 9.22236 12.7731 9.26831 12.8904 9.28666L14.1159 9.47866C14.2737 9.47927 14.4273 9.52965 14.5549 9.62262C14.6824 9.71559 14.7773 9.84641 14.8262 9.99646C14.875 10.1465 14.8753 10.3082 14.827 10.4584C14.7786 10.6086 14.6841 10.7397 14.5569 10.8332L13.6779 11.7092C13.5938 11.7929 13.5307 11.8955 13.494 12.0084C13.4572 12.1213 13.4478 12.2414 13.4664 12.3587L13.6607 13.5684C13.7141 13.72 13.7174 13.8848 13.6701 14.0385C13.6228 14.1921 13.5273 14.3265 13.3979 14.4218C13.2684 14.5171 13.1117 14.5682 12.9509 14.5677C12.7902 14.5672 12.6338 14.515 12.5049 14.4189L11.4062 13.8564C11.3003 13.8022 11.1831 13.7739 11.0642 13.7739C10.9453 13.7739 10.828 13.8022 10.7222 13.8564L9.62344 14.4189C9.49458 14.5142 9.33857 14.5658 9.17828 14.5659C9.01799 14.5661 8.86186 14.5149 8.73278 14.4199C8.6037 14.3249 8.50846 14.191 8.46103 14.0379C8.41359 13.8848 8.41645 13.7205 8.46919 13.5692L8.66269 12.3594C8.68138 12.2421 8.67194 12.1221 8.63518 12.0092C8.59841 11.8963 8.53535 11.7937 8.45119 11.7099L7.58419 10.8452C7.45268 10.754 7.35376 10.6233 7.30186 10.4719C7.24996 10.3206 7.24782 10.1566 7.29574 10.004C7.34366 9.85137 7.43913 9.71805 7.56821 9.62354C7.69729 9.52902 7.85321 9.47825 8.01319 9.47866L9.23794 9.28666C9.35526 9.26831 9.46655 9.22236 9.56265 9.15261C9.65874 9.08285 9.7369 8.99127 9.79069 8.88541L10.3532 7.77841ZM8.81494 3.56641C8.81494 5.22326 7.4718 6.56641 5.81494 6.56641C4.15809 6.56641 2.81494 5.22326 2.81494 3.56641C2.81494 1.90955 4.15809 0.566406 5.81494 0.566406C7.4718 0.566406 8.81494 1.90955 8.81494 3.56641Z" stroke="#6A7282" stroke-width="1.13" stroke-linecap="round" stroke-linejoin="round"/>
</svg>
