<svg width="24" height="24" viewBox="0 0 24 24" fill="none" xmlns="http://www.w3.org/2000/svg">
  <path d="M17.6543 13.9345C16.8783 13.1359 15.4257 11.9346 15.4257 8C15.4271 6.588 14.9144 5.2197 13.9757 4.1305C13.0371 3.0413 11.7313 2.2993 10.2829 2.0321V1.2308C10.2829 1.0691 10.2496 0.9091 10.185 0.7598C10.1204 0.6105 10.0257 0.4748 9.9063 0.3605C9.7869 0.2462 9.6452 0.1555 9.4892 0.0937C9.3332 0.0318 9.166 0 8.9972 0C8.8283 0 8.6611 0.0318 8.5051 0.0937C8.3492 0.1555 8.2074 0.2462 8.088 0.3605C7.9686 0.4748 7.8739 0.6105 7.8093 0.7598C7.7447 0.9091 7.7115 1.0691 7.7115 1.2308V2.0321C6.2631 2.2993 4.9572 3.0413 4.0186 4.1305C3.08 5.2197 2.5672 6.588 2.5686 8C2.5686 11.9346 1.1161 13.1359 0.3401 13.9345C0.1187 14.1605 -0.0031 14.4595 0.0001 14.7692C0.0002 14.9311 0.0337 15.0914 0.0986 15.2409C0.1635 15.3904 0.2586 15.5262 0.3784 15.6405C0.4982 15.7549 0.6403 15.8454 0.7967 15.9071C0.9531 15.9688 1.1206 16.0004 1.2898 16H16.7103C16.8794 16.0004 17.047 15.9688 17.2033 15.9071C17.3597 15.8454 17.5019 15.7549 17.6217 15.6405C17.7414 15.5262 17.8365 15.3904 17.9014 15.2409C17.9663 15.0914 17.9998 14.9311 18 14.7692C18.0016 14.4587 17.8777 14.1596 17.6543 13.9345Z" stroke="white" stroke-width="1.5"/>
  <path d="M12 18C12 18.7956 11.6839 19.5587 11.1213 20.1213C10.5587 20.6839 9.7956 21 9 21C8.2044 21 7.4413 20.6839 6.8787 20.1213C6.3161 19.5587 6 18.7956 6 18H9L12 18Z" fill="white"/>
</svg>
