<svg width="15" height="14" viewBox="0 0 15 14" fill="none" xmlns="http://www.w3.org/2000/svg">
<path d="M3.75 9H3C2.20435 9 1.44129 9.31607 0.878679 9.87868C0.31607 10.4413 0 11.2043 0 12V13.5M9.78825 7.212C9.8378 7.06 9.93463 6.92782 10.0646 6.83472C10.1946 6.74163 10.3509 6.69251 10.5107 6.69452C10.6706 6.69653 10.8256 6.74957 10.9532 6.8459C11.0808 6.94223 11.1743 7.07681 11.22 7.23L11.7728 8.319C11.8265 8.42486 11.9047 8.51644 12.0008 8.5862C12.0969 8.65596 12.2082 8.7019 12.3255 8.72025L13.551 8.91225C13.7088 8.91287 13.8624 8.96324 13.9899 9.05621C14.1174 9.14918 14.2124 9.28 14.2612 9.43005C14.3101 9.58011 14.3104 9.74175 14.262 9.89197C14.2137 10.0422 14.1192 10.1733 13.992 10.2667L13.113 11.1427C13.0288 11.2265 12.9658 11.3291 12.929 11.442C12.8922 11.5549 12.8828 11.675 12.9015 11.7922L13.0957 13.002C13.1492 13.1536 13.1525 13.3184 13.1052 13.4721C13.0578 13.6257 12.9624 13.7601 12.8329 13.8554C12.7034 13.9507 12.5468 14.0018 12.386 14.0013C12.2252 14.0008 12.0689 13.9486 11.94 13.8525L10.8412 13.29C10.7354 13.2358 10.6182 13.2075 10.4993 13.2075C10.3803 13.2075 10.2631 13.2358 10.1572 13.29L9.0585 13.8525C8.92964 13.9478 8.77362 13.9993 8.61334 13.9995C8.45305 13.9997 8.29692 13.9485 8.16784 13.8535C8.03876 13.7585 7.94352 13.6246 7.89608 13.4715C7.84865 13.3184 7.85151 13.1541 7.90425 13.0027L8.09775 11.793C8.11643 11.6757 8.107 11.5557 8.07023 11.4428C8.03346 11.3299 7.97041 11.2273 7.88625 11.1435L7.01925 10.2787C6.88774 10.1876 6.78881 10.0569 6.73692 9.90554C6.68502 9.7542 6.68288 9.59024 6.7308 9.4376C6.77872 9.28496 6.87419 9.15165 7.00327 9.05713C7.13235 8.96261 7.28827 8.91185 7.44825 8.91225L8.673 8.72025C8.79032 8.7019 8.90161 8.65596 8.9977 8.5862C9.0938 8.51644 9.17196 8.42486 9.22575 8.319L9.78825 7.212ZM8.25 3C8.25 4.65685 6.90685 6 5.25 6C3.59315 6 2.25 4.65685 2.25 3C2.25 1.34315 3.59315 0 5.25 0C6.90685 0 8.25 1.34315 8.25 3Z" stroke="#6A7282" stroke-width="1.13" stroke-linecap="round" stroke-linejoin="round"/>
</svg>
