<?xml version="1.0" encoding="UTF-8" standalone="no"?>
<!DOCTYPE svg PUBLIC "-//W3C//DTD SVG 1.1//EN" "http://www.w3.org/Graphics/SVG/1.1/DTD/svg11.dtd">
<svg width="100%" height="100%" viewBox="0 0 3000 3000" version="1.1" xmlns="http://www.w3.org/2000/svg" xmlns:xlink="http://www.w3.org/1999/xlink" xml:space="preserve" xmlns:serif="http://www.serif.com/" style="fill-rule:evenodd;clip-rule:evenodd;stroke-linejoin:round;stroke-miterlimit:2;">
    <g id="Screenshot-2026-03-02-at-12.29.10-AM.png" serif:id="Screenshot 2026-03-02 at 12.29.10 AM.png" transform="matrix(2.980628,0,0,2.980628,-51.220618,892.751941)">
        <path d="M117.54,180.951C112.24,181.37 112.245,181.423 70.5,181.406C67.13,181.405 65.848,181.87 65.833,178.497C65.833,178.434 65.833,50.56 65.833,50.503C65.845,47.633 66.638,47.581 69.5,47.579C120.127,47.554 120.303,47.276 132.413,50.811C133.475,51.121 139.337,52.832 145.225,55.996C145.335,56.055 149.099,58.396 149.435,58.605C159.932,65.134 169.012,76.631 172.606,85.454C173.434,87.485 174.932,89.938 176.641,97.468C179.421,109.719 178.651,116.492 178.116,123.457C177.98,125.225 176.223,134.627 174.282,139.413C173.405,141.578 168.919,154.235 156.745,164.788C156.688,164.838 142.278,178.93 117.54,180.951Z" style="fill:white;"/>
        <path d="M162.943,105.44C163.417,109.712 164.277,113.398 162.809,124.549C161.253,136.37 156.257,143.887 155.277,145.362C155.139,145.569 148.675,157.548 132.391,164.227C130.543,164.985 122.11,167.481 117.539,167.873C114.28,168.153 114.283,168.347 84.5,168.308C84.266,168.308 81.79,168.305 81.574,168.215C79.964,167.543 80.211,165.737 80.211,164.501C80.21,156.42 80.192,65.003 80.211,63.495C80.253,60.366 81.382,60.718 84.5,60.714C114.581,60.678 122.368,60.103 135.298,65.947C138.959,67.601 146.966,72.548 152.02,78.895C160.391,89.405 162.257,99.697 162.943,105.44Z" style="fill:rgb(31,58,137);"/>
        <path d="M441.653,169.752C441.263,170.245 437.798,175.664 428.307,180.072C426.388,180.963 420.313,184.059 408.495,184.271C394.493,184.521 387.017,179.31 386.288,178.87C369.127,168.519 370.899,149.103 376.625,140.585C388.515,122.897 412.912,124.772 425.5,124.772C441.426,124.772 441.586,124.869 442.206,124.211C443.267,123.085 442.237,115.423 440.152,111.688C438.967,109.564 435.251,102.154 423.591,99.16C418.319,97.807 410.484,97.873 405.494,99.483C402.889,100.324 396.496,101.918 389.091,109.076C387.211,110.893 387.279,110.95 387.116,111.108C384.863,113.282 383.246,110.619 380.231,107.794C376.658,104.446 375.68,103.755 377.092,102.2C379.13,99.955 386.145,93.526 394.393,90.233C398.136,88.739 406.386,85.119 422.469,86.778C437.424,88.321 455.479,98.711 456.189,121.51C456.275,124.249 456.225,179.398 456.218,179.474C456.001,181.969 453.088,181.406 451.5,181.406C445.924,181.408 443.732,181.604 443.269,180.666C442.597,179.305 442.928,173.389 443.011,172.508C443.054,172.044 443.32,170.496 442.796,170.202C442.439,170.001 442.01,169.953 441.653,169.752Z" style="fill:white;"/>
        <path d="M236.459,184.064C227.171,184.53 219.451,184.49 209.425,178.624C208.47,178.066 206.069,176.178 205.411,175.605C193.585,165.329 193.221,147.101 203.501,136.501C208.916,130.919 214.426,129.101 218.502,127.505C230.799,122.689 263.829,125.786 265.5,124.5C266.424,123.789 266.295,123.653 266.29,122.5C266.233,109.424 255.937,97.241 236.486,98.238C228.126,98.666 219.372,102.474 212.345,109.34C209.966,111.665 209.526,113.221 207.131,110.908C200.862,104.852 199.567,104.402 200.449,102.469C200.757,101.797 205.745,97.328 209.636,94.709C219.358,88.168 228.766,87.048 230.54,86.837C245.584,85.046 254.622,88.559 256.572,89.316C258.287,89.983 264.593,92.13 270.612,98.393C281.265,109.479 279.832,122.775 279.832,136.5C279.832,179.843 279.866,179.879 279.572,180.54C279.207,181.363 278.961,181.467 269.501,181.406C266.094,181.384 266.641,179.925 266.671,174.5C266.693,170.427 267.054,170.213 266.322,169.759C265.339,169.148 265.317,169.702 264.587,170.592C263.855,171.485 263.696,172.572 257.259,177.153C255.214,178.609 248.888,181.768 244.559,182.743C240.544,183.648 240.561,183.633 236.459,184.064Z" style="fill:white;"/>
        <path d="M823.671,138.298C824.783,139.266 870.886,177.257 871.356,177.665C873.458,179.487 874.591,179.621 874.67,180.478C874.761,181.464 874.512,181.523 873.53,181.61C872.651,181.688 872.667,181.406 862.5,181.406C855.929,181.406 855.667,181.698 853.313,179.727C836.224,165.42 836.189,165.496 834.708,164.249C818.349,150.484 815.829,148.4 812.865,146.068C811.916,145.321 806.95,141.018 806.439,140.575C804.728,139.093 804.061,138.595 803.24,139.275C802.7,139.721 803.102,139.867 803.102,146.5C803.102,179.414 803.103,179.407 803.092,179.468C802.761,181.334 801.772,181.387 800.498,181.405C790.631,181.545 790.552,181.516 789.872,181.005C789.105,180.43 789.213,180.208 789.213,160.5C789.213,48.644 789.209,48.646 789.238,48.461C789.496,46.792 789.805,46.731 791.51,46.678C791.729,46.672 800.417,46.673 800.496,46.674C803.318,46.726 803.094,47.673 803.102,50.5C803.121,56.663 803.324,124.127 803.068,127.534C802.978,128.733 802.303,129.069 803.395,129.618C803.698,129.77 803.993,130.098 804.325,130.029C804.923,129.906 804.639,129.494 810.101,125.04C811.062,124.255 811.005,124.208 821.79,114.844C833.246,104.898 837.698,101.215 839.102,100.054C839.711,99.55 839.665,99.516 846.555,93.564C851.338,89.432 851.447,89.343 853.495,89.291C854.62,89.262 854.619,89.329 867.566,89.154C868.542,89.141 868.754,88.827 869.242,89.665C869.941,90.868 868.978,90.722 866.651,92.672C830.147,123.261 823.73,128.839 820.047,132.041C817.963,133.853 819.048,134.502 820.391,135.629C820.65,135.846 820.665,135.819 823.671,138.298Z" style="fill:white;"/>
        <path d="M694.295,107.137C695.819,105.128 694.908,104.489 698.401,99.428C702.616,93.321 709.522,90.383 710.665,89.897C717.921,86.81 723.94,85.672 734.467,86.776C735.207,86.854 755.911,88.446 762.12,110.602C764.602,119.458 764.308,119.584 764.308,159.5C764.308,180.021 764.386,180.153 763.8,180.771C763.245,181.357 763.144,181.446 753.501,181.406C749.96,181.392 750.452,180.046 750.452,176.5C750.449,122.298 750.626,122.221 749.321,117.547C748.064,113.043 746.571,107.783 740.235,102.841C737.843,100.976 730.79,97.545 722.507,98.571C721.118,98.743 712.971,99.752 706.369,105.339C701.478,109.48 698.962,114.729 698.147,116.337C692.941,126.606 693.719,139.795 693.719,156.5C693.719,179.985 693.76,180.05 693.454,180.476C692.777,181.421 692.661,181.351 691.493,181.399C691.247,181.409 682.613,181.407 682.503,181.405C679.174,181.338 679.816,179.622 679.816,174.5C679.816,90.883 679.804,90.872 679.911,90.61C680.531,89.103 680.859,89.309 682.493,89.283C692.411,89.129 692.516,89.249 693.076,89.887C693.636,90.525 693.687,90.622 693.543,100.5C693.514,102.52 692.988,106 693.415,106.589C693.617,106.869 694.092,106.857 694.295,107.137Z" style="fill:white;"/>
        <path d="M596.423,217.109C596.111,217.154 593.622,217.951 582.495,217.799C582.335,217.796 580.958,217.778 580.519,217.47C579.86,217.007 579.681,216.345 579.756,208.503C579.789,205.157 581.138,205.784 584.5,205.783C590.796,205.782 598.728,206.54 604.295,195.401C605.14,193.71 608.044,186.247 608.356,185.445C609.697,181.997 609.826,181.506 607.557,176.474C605.305,171.477 571.82,93.624 571.712,93.397C571.605,93.172 570.53,90.916 570.55,90.502C570.609,89.313 572.298,89.273 572.481,89.269C573.364,89.248 581.948,89.046 583.524,89.353C585.405,89.72 585.184,90.289 589.874,101.342C591.618,105.452 591.478,105.497 593.281,109.594C594.541,112.456 598.395,122.262 598.829,123.367C599.367,124.736 599.508,124.67 605.818,140.373C606.698,142.562 606.868,142.47 609.227,148.604C610.365,151.564 610.591,151.457 611.687,154.428C613.719,159.934 614.177,159.75 615.608,164.44C615.751,164.911 615.586,165.218 616.543,165.277C616.996,165.305 617.293,165.541 617.697,164.678C618.035,163.959 617.864,163.892 621.418,155.462C624.165,148.946 628.687,137.95 629.314,136.425C629.71,135.464 632.89,127.73 634.206,124.385C634.483,123.68 634.506,123.702 637.803,115.622C638.75,113.303 638.895,113.383 641.225,107.394C641.473,106.756 641.574,106.807 644.498,99.499C645.317,97.453 648.147,90.774 648.364,90.404C649.253,88.891 651.716,89.328 658.5,89.281C658.744,89.279 661.176,89.263 661.546,89.407C662.635,89.83 662.165,91.229 662.113,91.385C662.049,91.575 659.297,97.636 657.351,102.435C656.932,103.468 655.687,105.906 654.335,109.431C653.193,112.407 652.929,112.291 643.547,134.519C640.581,141.546 640.421,141.458 637.465,148.486C631.236,163.297 631.098,163.235 630.56,164.524C624.194,179.768 622.363,183.232 619.103,191.337C618.743,192.233 615.809,198.856 615.52,199.509C613.144,204.871 609.948,208.665 609.348,209.377C604.491,215.142 600.3,216.086 596.423,217.109Z" style="fill:white;"/>
        <path d="M566.863,175.5C566.863,179.366 567.395,181.322 564.495,181.402C564.227,181.41 486.65,181.407 486.504,181.404C483.496,181.342 484.04,179.915 484.04,172.5C484.04,53.097 484.047,53.098 483.978,50.504C483.89,47.176 485.174,47.582 488.5,47.579C495.886,47.574 497.686,47.348 498.217,48.618C498.494,49.28 498.407,49.323 498.418,163.5C498.418,165.063 498.178,167.084 499.089,167.954C499.745,168.582 499.885,168.497 519.5,168.497C565.034,168.497 565.038,168.485 565.477,168.589C567.248,169.007 566.863,171.599 566.863,175.5Z" style="fill:white;"/>
        <path d="M332.562,181.084C331.968,180.969 327.664,180.133 325.363,178.754C315.69,172.956 316.407,163.856 316.407,153.5L316.407,78.5C316.407,63.434 316.212,62.948 317.491,62.479C318.243,62.203 318.318,62.175 327.504,62.275C329.154,62.293 329.498,62.067 330.117,63.597C330.279,63.997 330.167,82.567 330.199,86.505C330.213,88.217 329.982,88.582 331.573,89.203C331.856,89.313 334.591,89.277 352.5,89.282C354.253,89.282 357.021,88.693 357.147,91.519C357.156,91.712 357.152,98.468 357.151,98.49C357.063,100.249 357.156,100.617 355.443,101.059C355.211,101.119 333.021,101.068 332.467,101.094C332.262,101.104 330.629,101.182 330.29,102.439C330.186,102.826 330.198,102.835 330.198,138.5C330.198,161.367 329.845,163.656 332.376,166.603C335.296,170.005 338.909,169.228 355.502,169.309C358.183,169.322 358.516,169.812 358.524,172.5C358.542,178.626 358.764,180.743 357.402,181.239C357.119,181.342 340.701,181.769 332.562,181.084Z" style="fill:white;"/>
        <path d="M941.099,95.5C941.099,98.188 941.522,100.932 939.46,101.206C938.16,101.379 925.712,99.893 915.625,110.618C913.939,112.41 908.664,118.844 906.816,128.561C904.711,139.636 905.704,156.163 905.497,178.5C905.464,182.062 903.849,181.406 898.5,181.406C895.614,181.406 892.376,181.737 891.873,180.356C891.7,179.88 891.708,179.872 891.71,94.5C891.71,91.152 891.123,89.31 894.497,89.282C903.718,89.206 903.775,89.162 904.439,89.601C905.183,90.093 905.221,91.35 905.226,91.516C905.507,100.66 905.102,104.373 904.981,105.484C904.845,106.738 904.405,106.803 905.044,107.907C905.106,108.015 905.725,109.085 906.138,109.024C906.467,108.976 906.979,105.596 909.769,101.684C912.963,97.206 915.72,94.808 921.618,91.736C923.945,90.524 931.041,88.392 933.44,88.105C940.109,87.306 940.398,87.852 940.667,88.364C941.224,89.421 941.099,92.173 941.099,95.5Z" style="fill:white;"/>
        <path d="M224.364,138.125C226.786,137.356 226.953,137.166 231.501,136.505C234.035,136.137 236.462,135.785 263.509,136.001C266.273,136.023 266.37,136.74 266.371,139.5C266.377,152.231 266.595,152.407 264.778,155.645C255.292,172.55 235.67,174.368 224.443,171.721C222.245,171.203 218.23,169.15 216.413,167.607C215.5,166.831 211.419,163.349 210.85,157.459C209.536,143.853 218.21,140.548 224.364,138.125Z" style="fill:rgb(31,58,137);"/>
        <path d="M387.06,154.492C387.31,149.508 388.352,145.099 394.277,141.142C399.807,137.45 408.212,136.454 409.479,136.304C411.865,136.021 412.727,135.919 439.505,136.001C439.861,136.002 442.278,135.696 442.676,137.46C442.776,137.905 442.761,150.789 442.686,151.516C442.339,154.899 438.781,159.797 436.282,162.279C426.693,171.803 415.346,172.339 414.493,172.428C393.367,174.653 387.955,163.142 387.212,157.547C386.928,155.406 387.106,155.407 387.06,154.492Z" style="fill:rgb(31,58,137);"/>
        <path d="M1023.999,1.5C1023.228,1.356 1023.277,1.044 1020.506,1.034C687.504,1.034 354.502,1.034 21.5,1.034C3.086,1.034 3.086,0.823 1.5,1.034C0.981,1.103 0.519,1.431 0,1.5C0.354,1.146 -0.354,0.354 0,0C0.311,-0.311 0.399,0 5.5,0L1023.999,0C1024.428,0.257 1023.57,1.243 1023.999,1.5Z" style="fill:white;fill-opacity:0.35;"/>
    </g>
</svg>
