<?xml version="1.0" encoding="UTF-8" standalone="no"?>
<!DOCTYPE svg PUBLIC "-//W3C//DTD SVG 1.1//EN" "http://www.w3.org/Graphics/SVG/1.1/DTD/svg11.dtd">
<svg width="100%" height="100%" viewBox="0 0 1040 250" version="1.1" xmlns="http://www.w3.org/2000/svg" xmlns:xlink="http://www.w3.org/1999/xlink" xml:space="preserve" xmlns:serif="http://www.serif.com/" style="fill-rule:evenodd;clip-rule:evenodd;stroke-linejoin:round;stroke-miterlimit:2;">
    <g id="Screenshot-2026-03-02-at-12.29.10-AM.png" serif:id="Screenshot 2026-03-02 at 12.29.10 AM.png" transform="matrix(1.015625,0,0,1.015625,0,0)">
        <path d="M78.473,192.164C71.037,192.677 71.049,192.62 26.5,192.619C22.644,192.619 21.061,193.358 21.039,189.506C21.003,183.27 21.112,50.546 20.982,45.502C20.894,42.071 22.056,42.234 25.5,42.23C72.436,42.173 72.438,42.105 76.505,42.439C86.017,43.22 107.211,45.567 125.724,63.266C133.889,71.072 140.579,81.984 143.588,91.471C151.862,117.557 146.332,142.806 136.803,157.686C135.669,159.456 133.529,163.58 126.664,170.658C122.776,174.667 116.553,179.025 115.618,179.679C113.534,181.139 105.301,185.999 97.491,188.474C88.996,191.167 82.379,191.796 78.473,192.164Z" style="fill:white;"/>
        <path d="M83.567,58.14C84.461,58.336 117.358,62.577 127.785,96.413C132.41,111.417 131.828,133.317 123.945,147.737C121.955,151.376 110.282,176.735 71.511,177.856C71.194,177.866 39.368,178.084 38.397,177.744C37.29,177.356 37.227,175.72 37.219,175.519C37.207,175.21 37.214,59.51 37.215,59.487C37.326,56.356 38.722,56.894 47.5,56.894C74.789,56.894 74.816,56.767 83.567,58.14Z" style="fill:rgb(31,58,137);"/>
        <path d="M407.477,129.052C411.085,128.885 411.079,128.882 425.5,128.882C443.277,128.882 443.527,128.999 444.069,128.185C444.832,127.037 444.855,111.635 431.421,103.634C423.794,99.091 400.534,93.306 381.743,113.736C379.541,116.13 378.941,114.47 374.131,109.886C370.218,106.155 368.621,105.529 371.108,103.12C376.527,97.872 379.332,96.169 381.612,94.677C399.571,82.923 422.215,84.787 433.602,89.23C458.019,98.756 459.291,120.258 459.588,124.495C459.943,129.547 459.726,184.301 459.706,189.502C459.693,192.703 458.703,192.619 455.5,192.619C446.158,192.62 445.918,192.799 445.099,191.788C444.257,190.748 444.942,180.888 444.827,180.353C444.582,179.214 443.607,179.416 443.479,179.443C443.107,179.52 441.93,181.309 441.143,182.143C433.797,189.938 422.294,193.939 416.412,195.041C400.576,198.007 389.521,193.739 387.346,192.899C384.921,191.963 368.347,185.564 365.968,168.432C363.392,149.876 374.701,141.361 375.062,141.035C375.201,140.91 384.598,130.451 407.477,129.052Z" style="fill:white;"/>
        <path d="M208.471,129.085C217.304,128.623 235.356,128.999 243.516,128.881C244.493,128.867 246.247,128.93 246.194,126.5C245.898,112.911 236.756,101.02 219.5,99.499C204.408,98.168 194.121,103.813 186.631,110.645C182.99,113.966 182.573,116.278 179.583,113.411C171.742,105.893 171.33,105.74 171.788,104.592C172.352,103.178 178.499,98.118 179.445,97.428C187.194,91.789 195.681,87.622 206.481,86.344C237.296,82.701 259.965,98.314 261.392,124.506C261.738,130.854 261.529,184.301 261.509,189.5C261.495,193.117 260.111,192.619 256.5,192.619C248.137,192.62 247.807,192.772 247.035,191.914C246.039,190.808 246.562,183.732 246.661,181.478C246.669,181.293 246.753,179.376 245.497,179.482C244.572,179.56 244.856,180.74 239.393,185.37C232.357,191.335 221.255,195.024 213.526,195.753C184.544,198.486 169.685,182.321 167.785,168.457C163.931,140.327 189.55,130.354 208.471,129.085Z" style="fill:white;"/>
        <path d="M924.053,90.297C922.904,91.441 921.935,91.839 919.696,93.734C904.331,106.696 888.965,119.659 873.6,132.621C870.903,134.904 870.908,134.879 868.212,137.193C866.224,138.9 866.674,139.591 868.698,141.263C897.473,165.029 898.515,165.841 901.165,167.906C901.787,168.391 901.747,168.426 908.726,174.226C914.585,179.064 920.443,183.903 926.302,188.741C927.676,189.877 927.655,189.88 928.59,190.414C929.567,190.973 929.437,191.205 929.663,191.454C929.754,191.554 930.027,191.54 930.006,191.674C929.755,193.241 926.874,192.64 924.5,192.624C909.374,192.521 908.678,193.217 905.888,191.01C905.51,190.711 893.866,180.992 892.822,180.12C892.412,179.778 884.338,172.997 883.601,172.378C872.714,163.234 854.546,148.266 852.121,145.959C851.034,144.925 851.055,144.194 849.72,144.91C848.918,145.34 849.107,145.518 849.083,146.416C848.991,149.861 849.279,149.857 849.159,189.498C849.158,189.874 849.245,191.136 848.81,191.697C847.941,192.818 847.673,192.62 838.5,192.619C834.944,192.619 833.618,193.059 833.606,189.499C833.606,141.499 833.606,93.5 833.606,45.5C833.606,42.298 833.302,41.175 836.494,41.146C847.579,41.047 847.675,41.005 848.416,41.606C849.282,42.307 849.159,42.54 849.159,61.5C849.159,131.787 849.167,131.783 849.104,132.533C849.011,133.662 848.559,133.843 849.407,134.592C849.527,134.699 850.183,135.279 851.395,134.344C852.108,133.794 851.928,133.595 859.818,126.867C862.109,124.914 869.44,118.664 888.346,102.32C893.978,97.451 894.012,97.517 899.641,92.666C903.537,89.308 903.64,89.161 906.498,89.141C914.477,89.085 918.306,89.305 921.482,88.951C921.631,88.935 923.101,88.771 923.347,88.905C923.457,88.964 923.397,89.002 924.053,90.297Z" style="fill:white;"/>
        <path d="M725.707,107.455C725.756,107.766 725.691,108.088 725.739,108.399C725.941,109.694 727.012,109.179 727.266,109.191C727.308,109.083 727.79,107.844 727.79,107.844C728.118,107.153 728.176,107.198 728.422,106.453C730.406,100.441 736.63,95.085 737.487,94.484C742.594,90.904 752.929,83.982 772.517,86.374C788.033,88.269 795.926,98.817 797.297,100.649C804.085,109.72 805.086,121.594 805.248,123.525C805.689,128.746 805.662,128.751 805.658,188.5C805.658,191.672 805.673,192.597 802.502,192.619C792.351,192.689 792.348,192.737 791.499,192.502C789.896,192.058 790.145,191.414 790.145,177.5C790.145,126.494 790.375,126.409 788.549,119.487C785.86,109.295 779.115,104.741 778.604,104.354C769.267,97.281 746.954,96.123 734.763,113.679C725.154,127.516 726.365,141.493 726.365,170.5C726.365,191.073 726.435,191.183 725.907,191.811C725.266,192.572 725.062,192.815 713.496,192.617C710.142,192.56 710.776,190.569 710.776,185.5C710.776,90.852 710.765,90.842 710.866,90.59C711.318,89.463 712.265,89.248 712.428,89.211C712.876,89.11 723.958,89.079 724.576,89.234C726.548,89.729 726.198,91.789 726.193,99.5C726.191,103.493 726.076,103.472 725.707,107.455Z" style="fill:white;"/>
        <path d="M643.161,202.348C639.585,210.161 635.587,222.213 626.694,228.776C619.52,234.071 607.249,233.361 602.5,233.352C599.391,233.345 598.321,233.603 598.291,230.503C598.211,222.205 598.222,222.168 598.427,221.476C599.151,219.025 604.168,220.718 611.541,219.816C623.049,218.409 626.223,207.761 630.331,197.433C632.041,193.133 631.975,192.897 630.177,188.638C629.466,186.954 629.437,186.969 621.15,167.651C617.701,159.609 617.624,159.662 614.224,151.618C614.015,151.124 606.166,133.088 604.337,128.57C603.786,127.207 603.689,127.25 597.089,111.677C596.573,110.459 596.518,110.505 590.495,96.502C589.868,95.043 589.901,95.055 589.268,93.6C587.997,90.678 587.948,90.695 587.963,90.475C588.054,89.109 590.255,89.121 590.484,89.122C603.213,89.188 603.662,88.863 604.585,90.445C605.227,91.546 626.378,143.941 636.334,167.569C639.047,174.01 638.677,174.565 639.422,174.683C640.695,174.884 640.685,174.522 641.173,173.343C642.13,171.036 641.969,170.997 642.959,168.695C647.732,157.597 647.575,157.546 652.278,146.407C654.495,141.155 654.309,140.909 659.273,129.4C660.298,127.024 669.485,104.604 670.369,102.447C670.444,102.265 672.996,95.953 673.225,95.388C675.247,90.387 675.438,89.209 678.491,89.146C679.378,89.128 687.741,88.955 689.575,89.118C691.856,89.321 691.295,90.344 690.366,92.441C688.248,97.225 688.331,97.257 664.546,152.519C664.205,153.311 661.783,158.937 660.368,162.444C659.884,163.642 659.754,163.569 654.005,177.288C649.335,188.431 649.012,188.278 644.417,199.464C644.322,199.697 643.941,200.624 643.161,202.348Z" style="fill:white;"/>
        <path d="M506.896,49.5C506.896,176.371 506.893,176.357 506.917,176.451C507.347,178.193 507.726,178.119 509.507,178.135C516.579,178.195 581.737,178.002 582.586,178.247C583.815,178.603 583.888,180.265 583.897,180.472C583.904,180.639 583.909,190.257 583.887,190.546C583.717,192.675 581.957,192.596 581.508,192.612C580.389,192.652 502.381,192.622 495.5,192.619C491.952,192.618 490.63,193.054 490.616,189.499C490.616,189.447 490.616,45.552 490.616,45.501C490.626,41.899 491.901,42.231 495.5,42.23C505.076,42.226 506.285,41.992 506.753,43.398C506.942,43.966 506.896,47.7 506.896,49.5Z" style="fill:white;"/>
        <path d="M312.5,58.899C315.931,58.901 317.913,58.329 317.978,61.482C318.05,64.995 317.814,86.491 318.13,87.615C318.64,89.424 319.328,89.139 332.5,89.139C346.616,89.139 346.936,89.069 347.492,89.512C348.414,90.248 348.335,90.346 348.375,91.507C348.402,92.294 348.677,100.191 348.138,101.344C347.562,102.575 346.634,102.372 333.5,102.372C319.262,102.372 318.834,102.183 318.304,103.391C318.012,104.055 318.038,104.087 318.039,163.5C318.039,171.376 317.298,178.973 329.506,179.172C334.01,179.246 347.634,179.024 348.562,179.34C349.636,179.706 349.771,181.277 349.788,181.474C349.804,181.656 349.811,190.297 349.782,190.532C349.566,192.273 348.611,192.554 347.51,192.607C347.191,192.622 327.431,192.633 325.498,192.603C299.744,192.21 302.428,170.2 302.428,161.5C302.428,104.254 302.455,104.232 302.22,103.611C301.659,102.131 300.793,102.372 287.5,102.372C285.213,102.372 281.987,102.631 281.396,101.577C281.002,100.874 280.695,100.327 280.925,91.521C281.003,88.533 284.091,89.139 287.5,89.139C300.653,89.139 301.409,89.314 302.068,88.229C302.536,87.459 302.416,87.377 302.428,62.5C302.429,60.632 302.228,59.262 304.535,58.911C304.638,58.896 308.816,58.899 312.5,58.899Z" style="fill:white;"/>
        <path d="M963.718,110.409C963.872,110.619 963.77,110.953 963.924,111.164C964.159,111.485 964.447,111.481 964.5,111.48C964.901,111.474 964.782,111.151 965.179,111.144C966.772,107.03 968.039,103.052 974.282,97.26C976.639,95.073 986.476,87.698 1001.5,87.486C1004.886,87.439 1004.228,90.165 1004.228,92.5C1004.23,100.297 1004.434,101.561 1003.332,102.233C1001.259,103.497 994.065,100.504 981.781,107.945C977.086,110.789 966.798,119.997 964.843,139.533C963.714,150.817 964.74,189.625 964.184,191.396C963.809,192.591 961.739,192.616 961.503,192.619C950.484,192.753 950.426,192.792 949.608,192.306C948.573,191.692 948.73,191.37 948.73,175.5C948.73,90.841 948.719,90.831 948.821,90.58C949.551,88.781 951.457,89.139 957.5,89.139C960.295,89.139 963.318,88.773 963.886,90.329C964.25,91.325 964.183,103.34 963.936,106.492C963.782,108.455 963.762,108.434 963.718,110.409Z" style="fill:white;"/>
        <path d="M190.554,177.434C190.002,176.959 190.039,176.952 189.486,176.516C182.119,170.699 180.735,155.254 190.435,148.414C201.398,140.683 212.315,141.579 235.5,141.579C244.45,141.579 245.982,141.159 246.233,143.532C246.271,143.895 246.27,157.729 246.234,158.488C246.016,163.09 240.929,169.461 237.544,172.548C228.375,180.911 217.414,182.222 215.494,182.452C198.628,184.47 191.944,178.513 190.554,177.434Z" style="fill:rgb(31,58,137);"/>
        <path d="M381.832,162.504C381.986,158.625 382.548,153.689 387.401,149.387C397.65,140.301 415.678,141.579 429.5,141.579C443.182,141.579 443.692,141.378 444.235,142.614C444.564,143.364 444.651,158.724 444.157,160.402C443.575,162.38 441.217,166.17 440.322,167.372C436.097,173.049 432.756,175.208 427.77,177.993C415.18,185.025 398.73,183.407 392.349,179.795C383.032,174.521 381.951,168.344 381.832,162.504Z" style="fill:rgb(31,58,137);"/>
    </g>
</svg>
