<?xml version="1.0" encoding="UTF-8" standalone="no"?>
<!DOCTYPE svg PUBLIC "-//W3C//DTD SVG 1.1//EN" "http://www.w3.org/Graphics/SVG/1.1/DTD/svg11.dtd">
<svg width="100%" height="100%" viewBox="0 0 3000 3000" version="1.1" xmlns="http://www.w3.org/2000/svg" xmlns:xlink="http://www.w3.org/1999/xlink" xml:space="preserve" xmlns:serif="http://www.serif.com/" style="fill-rule:evenodd;clip-rule:evenodd;stroke-linejoin:round;stroke-miterlimit:2;">
    <g id="Screenshot-2026-03-02-at-12.29.10-AM.png" serif:id="Screenshot 2026-03-02 at 12.29.10 AM.png" transform="matrix(2.822656,0,0,2.822656,38.381826,955.7226)">
        <path d="M124.575,179.905C115.778,181.308 115.759,181.222 91.5,181.222C67.915,181.222 67.81,181.282 67.263,180.811C66.364,180.039 66.503,179.831 66.503,166.5C66.503,49.116 66.48,49.1 66.693,48.577C67.067,47.656 68.334,47.525 68.501,47.507C68.572,47.5 107.473,47.446 111.499,47.536C120.689,47.741 125.619,48.419 135.507,51.477C142.707,53.703 156.276,60.85 164.557,71.454C165.106,72.156 178.413,86.874 178.951,110.483C179.084,116.315 179.167,118.755 178.314,125.475C177.922,128.559 175.191,151 154.25,167.177C146.207,173.391 137.018,176.665 135.409,177.238C132.947,178.115 125.448,179.718 124.575,179.905Z"/>
        <path d="M80.913,67.5C80.913,66.436 80.782,62.39 81.287,61.348C81.621,60.66 83.316,60.642 83.502,60.639C107.581,60.377 114.828,60.874 117.545,61.061C130.755,61.967 142.367,68.419 149.095,74.928C151.141,76.908 155.407,82.223 156.596,84.445C159.286,89.472 162.753,95.67 163.875,107.471C166.303,133.014 154.492,147.259 154.382,147.418C146.392,158.955 133.921,163.641 133.602,163.766C122.459,168.138 113.772,168.052 108.499,168.081C108.166,168.083 83.51,168.081 83.505,168.081C81.762,168.016 81.381,168.133 80.939,166.441C80.909,166.329 80.913,166.328 80.913,67.5Z" style="fill:rgb(254,254,254);"/>
        <path d="M413.455,184.019C405.566,184.361 388.82,185.228 377.625,170.407C373.071,164.379 369.233,149.509 378.882,137.81C380.677,135.634 385.554,130.903 392.469,128.417C404.295,124.166 404.831,124.626 438.5,124.609C438.807,124.609 441.778,124.607 442.313,124.222C444.075,122.949 443.302,104.155 424.563,99.278C422.405,98.716 404.626,93.657 388.662,109.661C388.031,110.294 386.112,113.136 383.939,111.005C382.182,109.283 382.225,109.259 380.439,107.565C377.328,104.613 375.837,103.661 377.71,101.699C382.502,96.682 388.56,93.264 389.6,92.677C397.837,88.029 407.753,84.796 424.447,86.846C427.988,87.281 435.189,89.287 440.37,92.711C441.336,93.35 447.047,96.499 452.086,104.75C455.832,110.884 456.396,119.196 456.485,120.501C456.545,121.393 456.609,121.393 456.598,176.5C456.598,178.157 457.193,181.042 454.48,181.214C454.244,181.229 445.678,181.222 445.515,181.217C443.266,181.152 443.236,179.603 443.221,178.508C443.112,170.915 443.917,169.589 442.505,169.649C441.434,169.695 441.633,170.087 440.444,171.442C437.548,174.742 433.928,176.941 432.643,177.747C424.85,182.638 414.696,183.813 413.455,184.019Z"/>
        <path d="M266.429,169.864C266.18,169.946 265.901,169.658 265.653,169.74C265.595,169.759 264.385,171.621 261.806,173.859C246.412,187.219 218.306,188.221 204.229,173.763C194.757,164.035 193.146,146.348 205.243,135.219C209.621,131.192 212.984,129.359 221.53,126.6C232.415,123.087 262.669,125.272 265.501,124.502C266.113,124.336 267.663,123.914 266.103,116.592C265.52,113.851 263.349,109.348 261.103,106.859C255.406,100.543 248.864,99.271 244.506,98.465C238.26,97.31 228.348,98.599 221.601,102.664C214.011,107.238 213.638,108.812 211.123,111.104C208.984,113.052 207.475,110.573 204.356,107.655C200.672,104.208 199.761,103.624 201.629,101.624C202.433,100.763 210.751,92.677 220.457,89.379C222.519,88.678 229.961,85.355 244.505,86.432C263.251,87.819 279.694,100.157 280.31,121.506C280.404,124.745 280.37,179.175 280.328,179.476C280.047,181.518 277.927,181.219 277.496,181.222C276.781,181.226 268.881,181.277 268.561,181.172C266.897,180.625 267.07,180.254 267.044,178.515C266.976,173.995 267.195,171.195 267.245,170.56C266.973,170.328 266.701,170.096 266.429,169.864Z"/>
        <path d="M861.493,169.508C862.32,170.196 871.531,177.859 871.854,178.082C874.2,179.71 874.198,179.709 874.2,179.711C875.367,181.561 872.681,181.39 872.49,181.377C862.825,180.761 857.048,181.941 854.442,180.594C854.081,180.407 816.762,149.184 816.277,148.762C815.76,148.312 815.741,148.351 809.682,143.277C804.32,138.787 803.999,138.294 803.167,139.163C802.459,139.901 802.916,140.063 802.916,147.5C802.916,179.909 802.971,180.023 802.522,180.517C801.758,181.359 800.635,181.231 792.501,181.222C789.843,181.22 789.129,181.172 789.089,178.513C789.076,177.682 789.087,60.741 789.087,50.5C789.087,50.178 789.001,48.3 789.402,47.436C789.777,46.629 789.988,46.366 800.495,46.618C802.814,46.673 802.901,47.683 802.915,49.493C802.915,49.499 802.917,124.892 802.915,125.5C802.903,128.697 802.16,129.346 803.483,129.535C804.914,129.739 804.799,129.206 809.821,124.88C810.479,124.313 822.569,113.995 824.386,112.37C825.822,111.087 825.877,111.153 842.638,96.665C850.94,89.489 851.013,89.442 852.475,89.258C854.55,88.998 862.059,89.545 867.465,88.99C868.184,88.916 868.348,88.646 868.709,89.264C868.913,89.612 869.201,89.957 869.225,90.36C869.228,90.419 865.779,92.95 862.681,95.707C862.345,96.006 843.401,111.905 841.541,113.547C840.679,114.307 825.052,127.436 823.617,128.642C821.997,130.003 822.002,129.981 820.394,131.379C819.29,132.339 818.704,132.044 818.703,133.496C818.702,134.685 819.188,134.488 824.275,138.776C826.558,140.7 860.566,168.73 861.493,169.508Z"/>
        <path d="M762.865,113.41C764.366,121.156 764.202,121.2 764.202,165.5C764.202,177.756 764.207,179.335 764.176,179.459C763.718,181.246 763.352,181.202 761.494,181.221C751.978,181.32 751.903,181.39 751.252,180.891C750.151,180.047 750.334,179.787 750.334,169.5C750.334,120.561 750.64,120.356 748.1,113.651C741.756,96.906 725.42,96.897 716.58,99.761C715.914,99.977 694.608,104.679 693.767,136.509C693.606,142.599 693.786,178.844 693.663,179.529C693.371,181.151 691.703,181.208 691.483,181.216C691.231,181.224 682.616,181.223 682.507,181.221C679.707,181.175 679.823,180.294 679.822,177.5C679.821,170.621 679.806,92.275 679.827,91.516C679.888,89.304 681.337,89.23 682.49,89.211C692.429,89.046 692.547,89.189 693.084,89.847C693.624,90.507 693.68,90.576 693.519,100.5C693.486,102.583 692.926,105.781 693.48,106.524C693.936,107.133 694.252,107.251 694.529,106.544C694.612,106.333 694.6,106.085 694.712,105.887C694.837,105.667 695.097,105.543 695.223,105.322C696.161,103.679 696.99,98.046 706.678,91.786C707.815,91.051 713.991,87.815 720.546,86.786C723.236,86.364 741.488,83.5 753.431,95.568C760.498,102.709 761.693,109.529 762.865,113.41Z" style="fill:rgb(1,1,1);"/>
        <path d="M579.88,212.5C579.88,210.437 579.842,207.168 579.996,206.657C580.307,205.624 582.283,205.592 582.501,205.589C592.486,205.429 600.038,206.849 605.821,191.622C607.162,188.092 609.528,183.436 609.477,181.501C609.426,179.589 603.563,167.262 601.978,163.31C600.556,159.766 600.402,159.847 598.933,156.32C595.581,148.275 595.51,148.312 595.229,147.609C594.612,146.066 574.122,98.754 573.627,97.449C572.031,93.238 569.625,90.094 571.424,89.356C571.808,89.199 574.253,89.208 574.5,89.209C576.742,89.216 583.034,89.178 583.535,89.265C586.113,89.71 585.379,90.74 589.254,99.61C591.655,105.106 613.076,157.713 614.698,161.409C615.711,163.716 615.813,165.005 615.968,165.129C616.133,165.262 616.391,165.07 616.603,165.085C616.839,165.102 617.081,165.313 617.3,165.223C617.685,165.065 619.221,160.539 621.046,156.304C622.342,153.294 645.64,96.674 646.591,94.541C648.426,90.422 647.976,89.258 651.497,89.211C661.427,89.079 661.609,89.088 662.06,89.804C662.089,89.848 662.742,90.015 661.236,93.387C656.7,103.54 656.796,103.572 656.391,104.449C656.083,105.114 650.557,118.218 649.87,119.67C648.707,122.131 647.953,124.231 646.887,126.667C642.91,135.75 642.954,135.763 642.602,136.55C641.499,139.014 641.561,139.018 640.509,141.504C640.173,142.297 637.68,148.189 636.268,151.399C632.949,158.943 633.021,158.949 632.732,159.602C626.385,173.95 622.652,183.133 621.911,184.686C618.691,191.43 615.442,201.733 610.185,208.252C602.88,217.31 596.312,217.565 582.501,217.415C579.218,217.38 579.889,215.426 579.88,212.5Z"/>
        <path d="M484.206,77.5L484.206,52.5C484.206,50.092 483.613,47.607 486.5,47.498C486.702,47.49 496.249,47.489 496.5,47.501C497.255,47.537 498.558,47.678 498.69,49.48C498.724,49.946 498.696,164.325 498.705,165.497C498.707,165.715 498.723,167.67 499.686,168.036C500.273,168.259 500.305,168.155 562.5,168.201C565.969,168.204 567.149,168.037 567.048,171.502C566.813,179.614 567.676,181.142 564.491,181.22C564.391,181.223 486.609,181.226 486.514,181.218C486.227,181.195 484.523,181.14 484.242,179.547C484.202,179.315 484.206,179.317 484.206,77.5Z"/>
        <path d="M338.545,169.02C344.068,169.24 356.783,168.982 357.596,169.222C358.78,169.571 358.834,171.275 358.841,171.482C358.861,172.128 359.054,178.238 358.8,179.56C358.423,181.532 357.583,181.222 344.5,181.222C336.028,181.222 326.675,182.228 320.309,173.631C317.057,169.239 316.859,163.417 316.828,162.483C316.652,157.32 316.884,103.264 316.699,102.452C316.277,100.607 315.505,100.909 302.5,100.907C302.254,100.907 299.629,100.907 299.425,100.866C297.8,100.543 297.826,98.645 297.816,98.488C297.814,98.455 297.812,91.691 297.818,91.515C297.894,89.412 298.979,89.227 300.494,89.209C315.126,89.042 315.452,89.595 316.411,88.441C316.903,87.85 316.745,86.656 316.766,66.5C316.766,66.266 316.769,63.77 316.841,63.58C317.444,62.002 317.793,62.203 319.492,62.183C329.454,62.061 329.59,62.158 330.135,62.815C330.688,63.481 330.595,63.6 330.599,84.5C330.599,85.867 330.341,87.895 331.286,88.758C332.047,89.455 334.155,89.16 353.5,89.209C353.744,89.21 356.071,89.216 356.548,89.383C357.599,89.752 357.663,91.298 357.671,91.489C357.698,92.131 357.946,98.133 357.585,99.523C357.155,101.179 356.41,100.907 344.5,100.907C332.538,100.907 331.503,100.743 330.912,101.74C330.561,102.333 330.598,102.388 330.599,154.5C330.599,163.806 330.492,167.478 338.545,169.02Z"/>
        <path d="M906.233,108.248C912.78,88.165 938.026,87.16 939.435,87.749C941.019,88.412 940.768,88.772 940.781,90.496C940.787,91.22 940.847,98.98 940.72,99.551C940.166,102.036 938.845,100.185 930.569,101.804C927.853,102.335 920.492,104.949 915.893,109.865C904.072,122.5 905.234,138.91 905.234,152.5C905.234,179.703 905.265,179.736 905.021,180.28C904.607,181.203 902.71,181.22 902.494,181.222C892.975,181.306 892.894,181.38 892.255,180.867C891.223,180.04 891.383,179.8 891.383,167.5C891.383,91.021 891.367,91.016 891.512,90.504C891.964,88.905 893.847,89.206 900.5,89.209C900.831,89.209 904.301,88.801 904.858,90.336C905.136,91.1 905.142,91.115 905.08,100.5C905.047,105.445 904.085,108.773 905.5,108.726C905.792,108.717 905.942,108.258 906.233,108.248Z" style="fill:rgb(1,1,1);"/>
        <path d="M388.071,149.364C388.453,148.388 388.468,147.657 390.568,144.551C391.49,143.188 394.63,140.857 395.455,140.421C404.49,135.645 412.905,135.839 415.505,135.787C426.749,135.561 438.492,135.742 440.491,135.772C441.665,135.79 441.794,135.572 442.586,136.427C443.087,136.969 443.097,137.05 443.075,148.5C443.065,153.579 442.623,153.578 439.558,158.539C437.835,161.328 432.614,165.954 429.513,167.524C425.387,169.614 423.875,170.493 420.437,171.239C398.78,175.943 388.501,166.749 387.35,156.515C387.024,153.622 387.934,149.922 388.071,149.364Z" style="fill:rgb(254,254,254);"/>
        <path d="M211.086,154.497C211.142,153.338 210.823,143.943 221.44,139.364C230.51,135.453 232.446,135.726 263.499,135.77C267.465,135.776 266.836,137.438 266.837,140.5C266.84,151.967 267.103,152.311 265.351,155.416C264.439,157.033 260.403,164.91 248.304,170.025C245.007,171.419 237.444,172.699 232.5,172.493C210.352,171.573 211.107,155.115 211.086,154.497Z" style="fill:rgb(254,254,254);"/>
    </g>
</svg>
