<svg width="20" height="20" viewBox="0 0 20 20" fill="none" xmlns="http://www.w3.org/2000/svg">
<path d="M1.4373 0H10.0716C10.3194 0 10.5327 0.0881999 10.7082 0.2637L14.4927 4.0482C14.6679 4.2234 14.7561 4.4367 14.7561 4.6845V6.9375C14.7561 7.0122 14.7324 7.0764 14.6841 7.1328L14.0838 7.8324C14.0004 7.9296 13.872 7.9626 13.752 7.9182C13.632 7.8738 13.5561 7.7649 13.5561 7.6368V4.8693H11.1519C10.455 4.8693 9.8868 4.3011 9.8868 3.6045V1.2H1.4373C1.3074 1.2 1.2 1.3074 1.2 1.4376V17.628C1.2 17.7615 1.3041 17.8656 1.4373 17.8656H13.3188C13.4487 17.8656 13.5561 17.7582 13.5561 17.628V15.3645C13.5561 15.2901 13.5798 15.2259 13.6284 15.1695L14.2287 14.4699C14.3118 14.373 14.4405 14.3397 14.5605 14.3838C14.6805 14.4285 14.7561 14.5374 14.7561 14.6652V17.628C14.7561 18.4203 14.1111 19.0656 13.3188 19.0656H1.4373C0.6483 19.0656 0 18.4173 0 17.628V1.4376C0 0.6453 0.645 0 1.4373 0ZM3.1863 6.8118H11.3022C11.4402 6.8118 11.5527 6.9243 11.5527 7.062V7.5921C11.5527 7.7301 11.4402 7.8426 11.3022 7.8426H3.1863C3.0483 7.8426 2.9358 7.7301 2.9358 7.5921V7.062C2.9358 6.9243 3.0483 6.8118 3.1863 6.8118ZM3.1863 15.7224H7.8603C7.9983 15.7224 8.1108 15.8349 8.1108 15.9726V16.5027C8.1108 16.6407 7.9983 16.7532 7.8603 16.7532H3.1863C3.0483 16.7532 2.9358 16.6407 2.9358 16.5027V15.9726C2.9358 15.8349 3.0483 15.7224 3.1863 15.7224ZM3.1863 11.223H9.7506C9.8883 11.223 10.0011 11.3355 10.0011 11.4732V12.0036C10.0011 12.141 9.8883 12.2538 9.7506 12.2538H3.1863C3.0483 12.2538 2.9358 12.141 2.9358 12.0036V11.4732C2.9358 11.3355 3.0483 11.223 3.1863 11.223ZM3.1863 9.0174H11.3022C11.4402 9.0174 11.5527 9.1299 11.5527 9.2676V9.798C11.5527 9.9357 11.4402 10.0482 11.3022 10.0482H3.1863C3.0483 10.0482 2.9358 9.9357 2.9358 9.798V9.2676C2.9358 9.1299 3.0483 9.0174 3.1863 9.0174ZM3.1863 3.7524H6.5103C6.648 3.7524 6.7605 3.8649 6.7605 4.0026V4.5327C6.7605 4.6704 6.648 4.7832 6.5103 4.7832H3.1863C3.0483 4.7832 2.9358 4.6704 2.9358 4.5327V4.0026C2.9358 3.8649 3.0483 3.7524 3.1863 3.7524ZM15.8961 7.5534L16.6722 8.2191L17.4483 8.8851C17.5875 9.0045 17.6088 9.2097 17.4957 9.3411L12.4218 15.2538C12.7062 14.562 12.2313 14.4207 11.6592 14.3673C11.586 14.3601 11.5194 14.331 11.4663 14.2851C11.4132 14.2398 11.3742 14.1786 11.3562 14.1072C11.2164 13.5498 11.0049 13.1019 10.3641 13.488L15.4383 7.5753C15.5511 7.4439 15.7569 7.434 15.8961 7.5534ZM9.9273 13.9971L10.5216 13.8483C10.6224 13.8231 10.7229 13.8453 10.809 13.9116C10.8951 13.9782 10.9257 14.0724 10.9443 14.1753L10.9923 14.4444C11.01 14.5416 11.0358 14.6301 11.1135 14.6967C11.1912 14.7633 11.2824 14.7756 11.3811 14.778L11.6544 14.7849C11.7591 14.7873 11.8566 14.8035 11.9355 14.8785C12.0141 14.9532 12.0513 15.0492 12.0417 15.153L11.985 15.7629L9.6342 16.8933C9.5166 16.95 9.3792 16.9293 9.2742 16.8396C9.1698 16.7499 9.1284 16.617 9.1665 16.4919L9.9273 13.9971ZM16.2942 7.1238L17.8122 8.4264C17.9607 8.5539 18.1797 8.5443 18.2991 8.4051L18.8961 7.7094C19.4343 7.0821 19.1919 6.3282 18.6795 5.8866C18.1653 5.4429 17.379 5.3142 16.8384 5.9439L16.2417 6.6393C16.1223 6.7785 16.1457 6.9966 16.2942 7.1238Z" fill="#1E488F"/>
</svg>
