<svg width="24" height="24" viewBox="0 0 24 24" fill="none" xmlns="http://www.w3.org/2000/svg">
<path fill-rule="evenodd" clip-rule="evenodd" d="M6.2469 9.53602C6.2469 6.8859 8.03872 4.65429 10.4769 3.9866C10.5588 3.78482 10.6808 3.59937 10.8378 3.44239C11.146 3.13412 11.5641 2.96094 12.0001 2.96094C12.436 2.96094 12.8541 3.13412 13.1624 3.44239C13.3193 3.59937 13.4413 3.78482 13.5232 3.9866C13.7936 4.06066 14.056 4.15393 14.309 4.26488C14.5726 4.3805 14.6037 4.73107 14.418 4.95101C13.935 5.52329 13.6438 6.26282 13.6438 7.07036C13.6438 8.88602 15.1157 10.3578 16.9314 10.3578C17.0325 10.3578 17.1326 10.3533 17.2314 10.3443C17.4989 10.3201 17.7532 10.5159 17.7532 10.7844V12.8526C19.107 12.8526 20.2189 13.9501 20.2189 15.3037C20.2189 16.6574 19.107 17.7548 17.7532 17.7548H6.2469C4.8932 17.7548 3.78125 16.6574 3.78125 15.3037C3.78125 13.9501 4.8932 12.8526 6.2469 12.8526V9.53602ZM12.0001 21.0423C10.8853 21.0423 9.90006 20.4875 9.30558 19.6388C9.23294 19.5351 9.31075 19.3986 9.43735 19.3986H14.5628C14.6894 19.3986 14.7672 19.5351 14.6945 19.6388C14.1001 20.4875 13.1149 21.0423 12.0001 21.0423Z" fill="#4A5565"/>
</svg>
