<svg width="20" height="20" viewBox="0 0 20 20" fill="none" xmlns="http://www.w3.org/2000/svg">
<path d="M6.66732 18.3307C7.12756 18.3307 7.50065 17.9576 7.50065 17.4974C7.50065 17.0372 7.12756 16.6641 6.66732 16.6641C6.20708 16.6641 5.83398 17.0372 5.83398 17.4974C5.83398 17.9576 6.20708 18.3307 6.66732 18.3307Z" stroke="#121111" stroke-width="1.66667" stroke-linecap="round" stroke-linejoin="round"/>
<path d="M15.8333 18.3307C16.2936 18.3307 16.6667 17.9576 16.6667 17.4974C16.6667 17.0372 16.2936 16.6641 15.8333 16.6641C15.3731 16.6641 15 17.0372 15 17.4974C15 17.9576 15.3731 18.3307 15.8333 18.3307Z" stroke="#121111" stroke-width="1.66667" stroke-linecap="round" stroke-linejoin="round"/>
<path d="M1.70898 1.71094H3.37565L5.59232 12.0609C5.67363 12.44 5.88454 12.7788 6.18874 13.0192C6.49294 13.2595 6.87141 13.3862 7.25898 13.3776H15.409C15.7883 13.377 16.1561 13.247 16.4515 13.0091C16.747 12.7713 16.9524 12.4397 17.034 12.0693L18.409 5.8776H4.26732" stroke="#121111" stroke-width="1.66667" stroke-linecap="round" stroke-linejoin="round"/>
</svg>
