<svg width="60" height="60" viewBox="0 0 60 60" fill="none" xmlns="http://www.w3.org/2000/svg">
<g clip-path="url(#clip0_3467_127127)">
<path d="M30 60C46.5685 60 60 46.5685 60 30C60 13.4315 46.5685 0 30 0C13.4315 0 0 13.4315 0 30C0 46.5685 13.4315 60 30 60Z" fill="#EFEFEF"/>
</g>
<g clip-path="url(#clip1_3467_127127)">
<path d="M31.3781 33.0664H28.621C26.6643 33.0664 25.0635 34.6664 25.0635 36.622V38.4443C25.0635 40.3999 26.6643 41.9999 28.621 41.9999H31.3781C33.3347 41.9999 34.9356 40.3999 34.9356 38.4443V36.622C34.9356 34.6664 33.3347 33.0664 31.3781 33.0664Z" fill="#0E172B"/>
<path d="M31.3791 30.625H28.6221V32.5362H31.3791V30.625Z" fill="#0E172B"/>
<path d="M36.048 18H23.9524L19.9502 30.0447H40.0501L36.048 18Z" fill="#0E172B"/>
</g>
<defs>
<clipPath id="clip0_3467_127127">
<rect width="60" height="60" fill="white"/>
</clipPath>
<clipPath id="clip1_3467_127127">
<rect width="20.1" height="24" fill="white" transform="translate(19.9502 18)"/>
</clipPath>
</defs>
</svg>
