<svg width="24" height="24" viewBox="0 0 24 24" fill="none" xmlns="http://www.w3.org/2000/svg">
<g clip-path="url(#clip0_3467_127429)">
<path d="M20.334 8.03906H15.334C14.9924 8.03906 14.709 7.75572 14.709 7.41406C14.709 7.07239 14.9924 6.78906 15.334 6.78906H20.334C20.6757 6.78906 20.959 7.07239 20.959 7.41406C20.959 7.75572 20.6757 8.03906 20.334 8.03906Z" fill="#FDFDFD"/>
<path d="M6.99936 8.03906H3.66602C3.32436 8.03906 3.04102 7.75572 3.04102 7.41406C3.04102 7.07239 3.32436 6.78906 3.66602 6.78906H6.99936C7.34102 6.78906 7.62436 7.07239 7.62436 7.41406C7.62436 7.75572 7.34102 8.03906 6.99936 8.03906Z" fill="#FDFDFD"/>
<path d="M10.3327 10.9583C8.38269 10.9583 6.79102 9.36667 6.79102 7.41667C6.79102 5.46667 8.38269 3.875 10.3327 3.875C12.2827 3.875 13.8744 5.46667 13.8744 7.41667C13.8744 9.36667 12.2827 10.9583 10.3327 10.9583ZM10.3327 5.125C9.06602 5.125 8.04102 6.15 8.04102 7.41667C8.04102 8.68333 9.06602 9.70833 10.3327 9.70833C11.5994 9.70833 12.6244 8.68333 12.6244 7.41667C12.6244 6.15 11.5994 5.125 10.3327 5.125Z" fill="#FDFDFD"/>
<path d="M20.3333 17.2109H17C16.6583 17.2109 16.375 16.9275 16.375 16.5859C16.375 16.2442 16.6583 15.9609 17 15.9609H20.3333C20.675 15.9609 20.9583 16.2442 20.9583 16.5859C20.9583 16.9275 20.675 17.2109 20.3333 17.2109Z" fill="#FDFDFD"/>
<path d="M8.66602 17.2109H3.66602C3.32436 17.2109 3.04102 16.9275 3.04102 16.5859C3.04102 16.2442 3.32436 15.9609 3.66602 15.9609H8.66602C9.00769 15.9609 9.29102 16.2442 9.29102 16.5859C9.29102 16.9275 9.00769 17.2109 8.66602 17.2109Z" fill="#FDFDFD"/>
<path d="M13.6667 20.1225C11.7167 20.1225 10.125 18.5308 10.125 16.5808C10.125 14.6308 11.7167 13.0391 13.6667 13.0391C15.6167 13.0391 17.2083 14.6308 17.2083 16.5808C17.2083 18.5308 15.6167 20.1225 13.6667 20.1225ZM13.6667 14.2891C12.4 14.2891 11.375 15.3141 11.375 16.5808C11.375 17.8475 12.4 18.8725 13.6667 18.8725C14.9333 18.8725 15.9583 17.8475 15.9583 16.5808C15.9583 15.3141 14.9333 14.2891 13.6667 14.2891Z" fill="#FDFDFD"/>
</g>
<defs>
<clipPath id="clip0_3467_127429">
<rect width="20" height="20" fill="white" transform="translate(2 2)"/>
</clipPath>
</defs>
</svg>
