<svg width="60" height="60" viewBox="0 0 60 60" fill="none" xmlns="http://www.w3.org/2000/svg">
<g clip-path="url(#clip0_3467_127110)">
<mask id="mask0_3467_127110" style="mask-type:alpha" maskUnits="userSpaceOnUse" x="0" y="0" width="60" height="60">
<path d="M60 30C60 13.4315 46.5685 0 30 0C13.4315 0 0 13.4315 0 30C0 46.5685 13.4315 60 30 60C46.5685 60 60 46.5685 60 30Z" fill="#333333"/>
</mask>
<g mask="url(#mask0_3467_127110)">
<path d="M30 60C46.5685 60 60 46.5685 60 30C60 13.4315 46.5685 0 30 0C13.4315 0 0 13.4315 0 30C0 46.5685 13.4315 60 30 60Z" fill="#EFEFEF"/>
</g>
<path d="M26.4506 33.7812H25.2659C25.1572 33.7812 25.0667 33.8605 25.0528 33.9657L24.1526 41.1198C24.094 41.5875 24.4669 42 24.9484 42C25.3533 42 25.6953 41.7042 25.7443 41.3115L26.6626 34.0176C26.6786 33.8926 26.5784 33.7822 26.4495 33.7822L26.4506 33.7812Z" fill="#0E172B"/>
<path d="M35.29 33.9657C35.2773 33.8605 35.1856 33.7812 35.077 33.7812H33.8923C33.7634 33.7812 33.6643 33.8917 33.6792 34.0167L34.5976 41.3106C34.6466 41.7033 34.9885 41.9991 35.3934 41.9991C35.8749 41.9991 36.2478 41.5866 36.1892 41.1189L35.289 33.9648L35.29 33.9657Z" fill="#0E172B"/>
<path d="M37.0125 31.242L35.5956 29.1878C35.4315 28.9503 35.1577 28.8086 34.8658 28.8086H25.1349C24.842 28.8086 24.5682 28.9513 24.4052 29.1878L22.9883 31.242C22.6388 31.7492 23.0096 32.4326 23.636 32.4326H36.3658C36.9912 32.4326 37.3619 31.7492 37.0125 31.242Z" fill="#0E172B"/>
<path d="M24.9945 27.651H35.0077C35.2985 27.651 35.5361 27.424 35.5446 27.1406L35.7726 18.6187C35.7811 18.2802 35.5031 18.001 35.1568 18.001L24.8445 18C24.4982 18 24.2202 18.2792 24.2287 18.6177L24.4567 27.1396C24.4641 27.4239 24.7017 27.65 24.9936 27.65L24.9945 27.651Z" fill="#0E172B"/>
</g>
<defs>
<clipPath id="clip0_3467_127110">
<rect width="60" height="60" fill="white"/>
</clipPath>
</defs>
</svg>
