<svg width="20" height="20" viewBox="0 0 20 20" fill="none" xmlns="http://www.w3.org/2000/svg">
<g clip-path="url(#clip0_3467_127419)">
<path d="M9.58269 18.1224C4.87436 18.1224 1.04102 14.289 1.04102 9.58073C1.04102 4.87239 4.87436 1.03906 9.58269 1.03906C14.291 1.03906 18.1243 4.87239 18.1243 9.58073C18.1243 14.289 14.291 18.1224 9.58269 18.1224ZM9.58269 2.28906C5.55769 2.28906 2.29102 5.56406 2.29102 9.58073C2.29102 13.5974 5.55769 16.8724 9.58269 16.8724C13.6076 16.8724 16.8743 13.5974 16.8743 9.58073C16.8743 5.56406 13.6076 2.28906 9.58269 2.28906Z" fill="#BDBDBD"/>
<path d="M18.3325 18.9575C18.1742 18.9575 18.0159 18.8992 17.8909 18.7742L16.2242 17.1075C15.9825 16.8658 15.9825 16.4658 16.2242 16.2242C16.4659 15.9825 16.8659 15.9825 17.1075 16.2242L18.7742 17.8908C19.0159 18.1325 19.0159 18.5325 18.7742 18.7742C18.6492 18.8992 18.4909 18.9575 18.3325 18.9575Z" fill="#BDBDBD"/>
</g>
<defs>
<clipPath id="clip0_3467_127419">
<rect width="20" height="20" fill="white"/>
</clipPath>
</defs>
</svg>
