<svg width="60" height="60" viewBox="0 0 60 60" fill="none" xmlns="http://www.w3.org/2000/svg">
<g clip-path="url(#clip0_3467_127142)">
<path d="M30 60C46.5685 60 60 46.5685 60 30C60 13.4315 46.5685 0 30 0C13.4315 0 0 13.4315 0 30C0 46.5685 13.4315 60 30 60Z" fill="#EFEFEF"/>
</g>
<g clip-path="url(#clip1_3467_127142)">
<path d="M36.7447 17.9883H30.334V23.1532H37.4714L37.4702 18.739C37.5009 18.3191 37.138 17.9883 36.7447 17.9883ZM31.7241 21.3223C31.7241 21.5029 31.5729 21.6531 31.391 21.6531C31.2091 21.6531 31.0579 21.5029 31.0579 21.3223V19.8513C31.0579 19.6706 31.2091 19.5204 31.391 19.5204C31.5729 19.5204 31.7241 19.6706 31.7241 19.8513V21.3223Z" fill="#0E172B"/>
<path d="M22.5 42.015H23.8313V39.582H22.5V42.015Z" fill="#0E172B"/>
<path d="M36.168 42.0111H37.4993V39.5781H36.168V42.0111Z" fill="#0E172B"/>
<path d="M22.5 38.8904H37.4691V35.4062H22.5V38.8904ZM28.6083 36.8176H31.3607C31.5426 36.8176 31.6938 36.9678 31.6938 37.1484C31.6938 37.3291 31.5426 37.4792 31.3607 37.4792H28.6083C28.4264 37.4792 28.2752 37.3291 28.2752 37.1484C28.2763 36.9678 28.4275 36.8176 28.6083 36.8176Z" fill="#0E172B"/>
<path d="M30.334 34.7458H37.4714V29.6406H30.334V34.7458ZM31.0593 31.4719C31.0593 31.2913 31.2105 31.1411 31.3924 31.1411C31.5743 31.1411 31.7255 31.2913 31.7255 31.4719V32.9429C31.7255 33.1236 31.5743 33.2738 31.3924 33.2738C31.2105 33.2738 31.0593 33.1236 31.0593 32.9429V31.4719Z" fill="#0E172B"/>
<path d="M30.334 28.9177H37.4714V23.8125H30.334V28.9177ZM31.0593 25.645C31.0593 25.4643 31.2105 25.3142 31.3924 25.3142C31.5743 25.3142 31.7255 25.4643 31.7255 25.645V27.116C31.7255 27.2966 31.5743 27.4468 31.3924 27.4468C31.2105 27.4468 31.0593 27.2966 31.0593 27.116V25.645Z" fill="#0E172B"/>
<path d="M29.6667 17.9883H23.256C22.8331 17.9883 22.5 18.3191 22.5 18.739V34.7456H29.6374V17.9883H29.6667ZM28.9414 28.2584C28.9414 28.4391 28.7902 28.5892 28.6083 28.5892C28.4264 28.5892 28.2752 28.4391 28.2752 28.2584V26.7874C28.2752 26.6068 28.4264 26.4566 28.6083 26.4566C28.7902 26.4566 28.9414 26.6067 28.9414 26.7874V28.2584Z" fill="#0E172B"/>
</g>
<defs>
<clipPath id="clip0_3467_127142">
<rect width="60" height="60" fill="white"/>
</clipPath>
<clipPath id="clip1_3467_127142">
<rect width="15" height="24.025" fill="white" transform="translate(22.5 17.9883)"/>
</clipPath>
</defs>
</svg>
