<svg width="60" height="60" viewBox="0 0 60 60" fill="none" xmlns="http://www.w3.org/2000/svg">
<g clip-path="url(#clip0_3467_127097)">
<mask id="mask0_3467_127097" style="mask-type:alpha" maskUnits="userSpaceOnUse" x="0" y="0" width="60" height="60">
<path d="M60 30C60 13.4315 46.5685 0 30 0C13.4315 0 0 13.4315 0 30C0 46.5685 13.4315 60 30 60C46.5685 60 60 46.5685 60 30Z" fill="#333333"/>
</mask>
<g mask="url(#mask0_3467_127097)">
<path d="M30 60C46.5685 60 60 46.5685 60 30C60 13.4315 46.5685 0 30 0C13.4315 0 0 13.4315 0 30C0 46.5685 13.4315 60 30 60Z" fill="#EFEFEF"/>
<path fill-rule="evenodd" clip-rule="evenodd" d="M24.1466 40.6707L23.9092 41.6908C23.8677 41.8709 23.7067 41.9984 23.5219 41.9984H22.191C22.081 41.9984 21.9743 41.9522 21.8993 41.8725C21.8244 41.7912 21.7862 41.6828 21.7926 41.5728L21.8722 40.4412C22.3552 40.5895 22.8668 40.6692 23.3928 40.6692H24.1467L24.1466 40.6707ZM35.5121 40.6707H36.6055C37.0135 40.6707 37.4104 40.6229 37.7929 40.5337L37.8662 41.5744C37.8742 41.6844 37.8359 41.7928 37.7594 41.8741C37.6845 41.9554 37.5793 42 37.4678 42H36.1369C35.952 42 35.7911 41.8725 35.7496 41.6924L35.5121 40.6723V40.6707ZM20.9045 25.2854V21.677C20.9045 19.6464 22.551 18 24.5815 18H35.4149C37.4454 18 39.0918 19.6465 39.0918 21.677V25.2854L38.9484 25.2599C37.1681 24.946 35.4691 26.1349 35.1551 27.9153L35.0881 28.293C31.6948 27.6124 28.2999 27.6124 24.9067 28.293L24.8398 27.9153C24.5258 26.1349 22.8268 24.946 21.0465 25.2599L20.903 25.2854H20.9045ZM25.5682 32.037L25.1857 29.8646C28.3957 29.2175 31.6039 29.2159 34.8142 29.8646L34.4317 32.0386H25.5698L25.5682 32.037ZM40.1281 36.1221C39.8268 37.8307 38.3414 39.0771 36.6057 39.0771H23.3927C21.657 39.0771 20.1716 37.8307 19.8703 36.1221L18.6176 29.0135C18.4566 28.0987 19.0671 27.2269 19.9819 27.0659L21.3255 26.8284C22.2404 26.6674 23.1122 27.2779 23.2732 28.1928L24.2327 33.6309H35.7687L36.7282 28.1928C36.8892 27.2779 37.761 26.6674 38.6759 26.8284L40.0195 27.0659C40.9343 27.2269 41.5448 28.0987 41.3838 29.0135L40.1311 36.1221H40.1281Z" fill="#0E172B"/>
</g>
</g>
<defs>
<clipPath id="clip0_3467_127097">
<rect width="60" height="60" fill="white"/>
</clipPath>
</defs>
</svg>
