<svg width="12" height="14" viewBox="0 0 12 14" fill="none" xmlns="http://www.w3.org/2000/svg">
<path d="M5.53477 0C2.47638 0 0 2.47984 0 5.53657C0 7.66365 2.67579 11.352 4.30749 13.4053C4.84595 14.0861 5.83536 14.1982 6.51323 13.6596C6.60616 13.5857 6.69089 13.501 6.76742 13.4053C8.39912 11.3548 11.075 7.66365 11.075 5.53657C11.0695 2.47984 8.5933 0 5.53477 0ZM5.53477 7.73196C4.32397 7.73196 3.34274 6.75043 3.33995 5.53923C3.33722 4.32803 4.32117 3.3437 5.53197 3.3437C6.74278 3.3437 7.72679 4.32523 7.72679 5.53643C7.72679 6.75037 6.74558 7.73196 5.53477 7.73196Z" fill="#292526"/>
</svg>
