<svg width="17" height="19" viewBox="0 0 17 19" fill="none" xmlns="http://www.w3.org/2000/svg">
<path fill-rule="evenodd" clip-rule="evenodd" d="M2.46565 6.57508C2.46565 3.92496 4.25747 1.69335 6.69568 1.02566C6.77758 0.82388 6.89958 0.63843 7.05658 0.48145C7.36478 0.17318 7.78288 0 8.21888 0C8.65478 0 9.07288 0.17318 9.38118 0.48145C9.53808 0.63843 9.66008 0.82388 9.74198 1.02566C10.0124 1.09972 10.2748 1.19299 10.5278 1.30394C10.7914 1.41956 10.8225 1.77013 10.6368 1.99007C10.1538 2.56235 9.86258 3.30188 9.86258 4.10942C9.86258 5.92508 11.3345 7.39691 13.1502 7.39691C13.2513 7.39691 13.3514 7.39241 13.4502 7.38341C13.7177 7.35921 13.972 7.55501 13.972 7.82351V9.89171C15.3258 9.89171 16.4377 10.9892 16.4377 12.3428C16.4377 13.6965 15.3258 14.7939 13.972 14.7939H2.46565C1.11195 14.7939 0 13.6965 0 12.3428C0 10.9892 1.11195 9.89171 2.46565 9.89171V6.57508ZM8.21888 18.0814C7.10408 18.0814 6.11881 17.5266 5.52433 16.6779C5.45169 16.5742 5.5295 16.4377 5.6561 16.4377H10.7816C10.9082 16.4377 10.986 16.5742 10.9133 16.6779C10.3189 17.5266 9.33368 18.0814 8.21888 18.0814Z" fill="#4A5565"/>
</svg>
