<svg width="74" height="57" viewBox="0 0 74 57" fill="none" xmlns="http://www.w3.org/2000/svg">
<g clip-path="url(#clip0_3099_46881)">
<path fill-rule="evenodd" clip-rule="evenodd" d="M0.0244332 0.485884C-0.236969 -1.23596 1.11566 0.626978 28.5742 22.6672C47.7301 38.0432 47.8796 38.3845 48.1694 38.1932C51.6284 35.9112 72.9191 20.381 73.3827 20.6475C73.7818 20.8771 73.4122 21.0769 65.4772 29.2678C60.8753 34.0181 60.9791 34.0741 56.258 38.6877C52.6291 42.2338 48.2109 47.4398 47.669 46.8953C42.1048 41.3048 30.733 30.3134 29.2511 28.8811C29.0788 28.7272 28.9066 28.5732 28.7343 28.4193C20.5261 20.6815 8.09145 8.25998 6.31644 6.4868C2.75438 2.99422 0.868322 1.08555 0.0244332 0.485884Z" fill="#1E498F"/>
<path fill-rule="evenodd" clip-rule="evenodd" d="M0.0244977 0.486328C0.868387 1.08599 2.75444 2.99467 6.31651 6.48725C6.13402 6.75338 6.19886 6.77159 3.41053 34.0572C2.22073 45.7007 1.87038 48.2423 2.42259 47.843C26.8228 30.2023 26.9202 30.3047 28.7344 28.4198C28.9067 28.5736 29.0789 28.7277 29.2512 28.8815C28.5176 29.5996 2.03379 56.0299 1.65876 56.6965C1.60367 56.7943 0.654043 57.7297 0.662938 55.7099C0.67585 52.7513 -0.12055 1.13876 0.0244977 0.486328Z" fill="#EFC94F"/>
</g>
<defs>
<clipPath id="clip0_3099_46881">
<rect width="73.5" height="57" fill="white"/>
</clipPath>
</defs>
</svg>
