<svg width="60" height="60" viewBox="0 0 60 60" fill="none" xmlns="http://www.w3.org/2000/svg">
<circle cx="30" cy="30" r="30" fill="#EB2122"/>
<path d="M29.7343 36.914C32.6683 36.914 35.0468 34.5355 35.0468 31.6015C35.0468 28.6675 32.6683 26.2891 29.7343 26.2891C26.8004 26.2891 24.4219 28.6675 24.4219 31.6015C24.4219 34.5355 26.8004 36.914 29.7343 36.914Z" fill="white"/>
<path d="M43.4842 21.0868H40.4967L36.6843 16.1619C36.3349 15.7081 35.8863 15.3403 35.3728 15.0868C34.8592 14.8333 34.2945 14.7007 33.7218 14.6994H25.9843C25.4126 14.6944 24.8473 14.8202 24.3317 15.0672C23.8161 15.3142 23.3638 15.6758 23.0093 16.1244L18.9968 21.1243H15.9844C14.9898 21.1243 14.036 21.5194 13.3327 22.2227C12.6295 22.9259 12.2344 23.8798 12.2344 24.8743V40.9492C12.2344 41.9438 12.6295 42.8976 13.3327 43.6009C14.036 44.3041 14.9898 44.6992 15.9844 44.6992H43.4842C44.4788 44.6992 45.4326 44.3041 46.1359 43.6009C46.8391 42.8976 47.2342 41.9438 47.2342 40.9492V24.8368C47.2342 23.8423 46.8391 22.8884 46.1359 22.1852C45.4326 21.4819 44.4788 21.0868 43.4842 21.0868ZM29.7343 39.4117C28.1891 39.4117 26.6787 38.9536 25.3939 38.0951C24.1092 37.2367 23.1078 36.0165 22.5165 34.589C21.9252 33.1614 21.7705 31.5906 22.0719 30.0751C22.3734 28.5597 23.1175 27.1676 24.21 26.075C25.3026 24.9824 26.6947 24.2384 28.2102 23.9369C29.7256 23.6355 31.2964 23.7902 32.724 24.3815C34.1515 24.9728 35.3717 25.9742 36.2301 27.2589C37.0886 28.5437 37.5468 30.0541 37.5468 31.5993C37.5468 33.6713 36.7237 35.6584 35.2585 37.1235C33.7934 38.5886 31.8063 39.4117 29.7343 39.4117ZM41.5592 27.9118C41.2679 27.9116 40.9832 27.8244 40.7418 27.6614C40.5003 27.4984 40.313 27.267 40.2039 26.9968C40.0949 26.7267 40.069 26.4301 40.1296 26.1451C40.1902 25.8601 40.3345 25.5997 40.5441 25.3973C40.7537 25.1949 41.0189 25.0597 41.3058 25.0091C41.5927 24.9584 41.8882 24.9946 42.1544 25.113C42.4206 25.2314 42.6454 25.4266 42.7999 25.6736C42.9545 25.9206 43.0317 26.2081 43.0217 26.4993C43.0088 26.8785 42.849 27.2377 42.5761 27.5013C42.3032 27.7648 41.9386 27.912 41.5592 27.9118Z" fill="white"/>
</svg>
