<svg width="34" height="34" viewBox="0 0 34 34" fill="none" xmlns="http://www.w3.org/2000/svg">
<path d="M33.5182 8.3141L31.299 20.8766L29.2995 9.5021C28.9875 7.7516 28.0177 6.23698 26.5646 5.22035C25.4396 4.4396 24.1271 4.01773 22.7516 4.01773C22.3766 4.01773 21.9855 4.04849 21.5958 4.11148L6.0026 6.86098L6.58123 3.54898C6.98698 1.22135 9.22235 -0.341649 11.5661 0.0641015L30.0348 3.3146C32.3625 3.72035 33.9255 5.95573 33.5197 8.29948L33.5182 8.3141ZM29.6906 25.3151L28.5495 18.8625L25.1583 16.488C24.2838 15.8786 23.0651 16.0822 22.4557 16.9729L19.8468 20.7067L29.5031 27.4567C29.7375 26.7697 29.8312 26.0343 29.6906 25.3166V25.3151ZM1.59635 23.424L6.42448 16.5334C7.08073 15.5959 8.0651 14.9704 9.1901 14.7682C10.3151 14.5646 11.4562 14.8312 12.3937 15.4875L17.9411 19.362L20.55 15.6281C21.9093 13.6901 24.5812 13.2214 26.5192 14.5807L27.9885 15.612L26.988 9.9401C26.7844 8.8151 26.1603 7.83073 25.2228 7.17448C24.2853 6.51823 23.1442 6.26773 22.0192 6.45523L3.54898 9.6896C1.22135 10.0954 -0.341648 12.3307 0.0641015 14.6745L1.61098 23.424H1.59635ZM11.049 17.3932C10.6271 17.0959 10.1115 16.9875 9.59585 17.0651C9.08023 17.1589 8.64223 17.4401 8.34635 17.862L2.17498 26.6745L2.76823 30.0495C2.97184 31.1745 3.59585 32.1589 4.53335 32.8151C5.26723 33.3307 6.11098 33.5959 6.98698 33.5959C7.23746 33.5959 7.48648 33.5797 7.73698 33.5329L26.2057 30.2824C26.9396 30.1579 27.5958 29.8297 28.1583 29.3756L11.049 17.3917V17.3932Z" fill="white"/>
</svg>
