<svg width="16" height="16" viewBox="0 0 16 16" fill="none" xmlns="http://www.w3.org/2000/svg">
<path d="M4.31543 9.56641H3.56543C2.76978 9.56641 2.00672 9.88248 1.44411 10.4451C0.8815 11.0077 0.56543 11.7708 0.56543 12.5664V14.0664M10.3537 7.77841C10.4032 7.62641 10.5001 7.49422 10.63 7.40113C10.76 7.30804 10.9163 7.25891 11.0762 7.26092C11.236 7.26293 11.3911 7.31597 11.5187 7.4123C11.6462 7.50863 11.7397 7.64321 11.7854 7.79641L12.3382 8.88541C12.392 8.99127 12.4701 9.08285 12.5662 9.15261C12.6623 9.22236 12.7736 9.26831 12.8909 9.28666L14.1164 9.47866C14.2742 9.47927 14.4278 9.52965 14.5553 9.62262C14.6829 9.71559 14.7778 9.84641 14.8267 9.99646C14.8755 10.1465 14.8758 10.3082 14.8275 10.4584C14.7791 10.6086 14.6846 10.7397 14.5574 10.8332L13.6784 11.7092C13.5943 11.7929 13.5312 11.8955 13.4944 12.0084C13.4577 12.1213 13.4482 12.2414 13.4669 12.3587L13.6612 13.5684C13.7146 13.72 13.7179 13.8848 13.6706 14.0385C13.6233 14.1921 13.5278 14.3265 13.3984 14.4218C13.2689 14.5171 13.1122 14.5682 12.9514 14.5677C12.7906 14.5672 12.6343 14.515 12.5054 14.4189L11.4067 13.8564C11.3008 13.8022 11.1836 13.7739 11.0647 13.7739C10.9458 13.7739 10.8285 13.8022 10.7227 13.8564L9.62393 14.4189C9.49507 14.5142 9.33905 14.5658 9.17877 14.5659C9.01848 14.5661 8.86235 14.5149 8.73327 14.4199C8.60419 14.3249 8.50895 14.191 8.46151 14.0379C8.41408 13.8848 8.41694 13.7205 8.46968 13.5692L8.66318 12.3594C8.68186 12.2421 8.67243 12.1221 8.63566 12.0092C8.59889 11.8963 8.53584 11.7937 8.45168 11.7099L7.58468 10.8452C7.45317 10.754 7.35424 10.6233 7.30235 10.4719C7.25045 10.3206 7.24831 10.1566 7.29623 10.004C7.34415 9.85137 7.43962 9.71805 7.5687 9.62354C7.69778 9.52902 7.8537 9.47825 8.01368 9.47866L9.23843 9.28666C9.35575 9.26831 9.46704 9.22236 9.56313 9.15261C9.65923 9.08285 9.73739 8.99127 9.79118 8.88541L10.3537 7.77841ZM8.81543 3.56641C8.81543 5.22326 7.47228 6.56641 5.81543 6.56641C4.15858 6.56641 2.81543 5.22326 2.81543 3.56641C2.81543 1.90955 4.15858 0.566406 5.81543 0.566406C7.47228 0.566406 8.81543 1.90955 8.81543 3.56641Z" stroke="#6A7282" stroke-width="1.13" stroke-linecap="round" stroke-linejoin="round"/>
</svg>
