<svg width="8" height="14" viewBox="0 0 8 14" fill="none" xmlns="http://www.w3.org/2000/svg">
<path d="M0.0625 0.625C0.0625 0.551086 0.0771831 0.477467 0.105469 0.40918C0.133753 0.340936 0.175303 0.278798 0.227539 0.226562C0.279775 0.174363 0.34193 0.132752 0.410156 0.104492C0.478273 0.0763125 0.551286 0.0615689 0.625 0.0615234C0.698914 0.0615234 0.772532 0.0762064 0.84082 0.104492C0.909103 0.132778 0.971176 0.1743 1.02344 0.226562L7.27344 6.47656C7.32573 6.52879 7.3672 6.59091 7.39551 6.65918C7.42382 6.72747 7.43848 6.80108 7.43848 6.875C7.43843 6.94873 7.42372 7.02172 7.39551 7.08984C7.36722 7.15808 7.32568 7.22024 7.27344 7.27246L1.02344 13.5225C0.917883 13.628 0.774277 13.6875 0.625 13.6875C0.475849 13.6874 0.333012 13.6279 0.227539 13.5225C0.122067 13.417 0.062592 13.2742 0.0625 13.125C0.0625 12.9757 0.121985 12.8321 0.227539 12.7266L6.03613 6.91895L6.08008 6.875L6.03613 6.83008L0.227539 1.02246C0.175274 0.970197 0.133755 0.908132 0.105469 0.839844C0.0772621 0.7717 0.0625456 0.69875 0.0625 0.625Z" fill="#0E172B" stroke="#0E172B" stroke-width="0.125"/>
</svg>
