<svg width="15" height="17" viewBox="0 0 15 17" fill="none" xmlns="http://www.w3.org/2000/svg">
<path d="M6.66667 16.44C6.92003 16.5862 7.20744 16.6633 7.5 16.6633C7.79256 16.6633 8.07997 16.5862 8.33333 16.44L14.1667 13.1066C14.4198 12.9605 14.63 12.7504 14.7763 12.4973C14.9225 12.2443 14.9997 11.9572 15 11.665V4.99829C14.9997 4.70602 14.9225 4.41897 14.7763 4.16593C14.63 3.91289 14.4198 3.70276 14.1667 3.55662L8.33333 0.223291C8.07997 0.0770104 7.79256 0 7.5 0C7.20744 0 6.92003 0.0770104 6.66667 0.223291L0.833333 3.55662C0.580219 3.70276 0.369983 3.91289 0.223718 4.16593C0.0774523 4.41897 0.000299785 4.70602 0 4.99829V11.665C0.000299785 11.9572 0.0774523 12.2443 0.223718 12.4973C0.369983 12.7504 0.580219 12.9605 0.833333 13.1066L6.66667 16.44Z" stroke="#1E488F" strokeWidth="1.66667" strokeLinecap="round" strokeLinejoin="round"/>
</svg>
