<svg width="15" height="17" viewBox="0 0 15 17" fill="none" xmlns="http://www.w3.org/2000/svg">
<path d="M7.31543 15.5649V8.06487M7.31543 8.06487L0.78293 4.31487M7.31543 8.06487L13.8479 4.31487M3.94043 2.26737L10.6904 6.12987M6.56543 15.3624C6.79346 15.494 7.05212 15.5633 7.31543 15.5633C7.57873 15.5633 7.8374 15.494 8.06543 15.3624L13.3154 12.3624C13.5432 12.2308 13.7324 12.0417 13.8641 11.814C13.9957 11.5863 14.0652 11.3279 14.0654 11.0649V5.06487C14.0652 4.80182 13.9957 4.54348 13.8641 4.31574C13.7324 4.088 13.5432 3.89889 13.3154 3.76737L8.06543 0.767368C7.8374 0.635716 7.57873 0.566406 7.31543 0.566406C7.05212 0.566406 6.79346 0.635716 6.56543 0.767368L1.31543 3.76737C1.08763 3.89889 0.898415 4.088 0.766776 4.31574C0.635137 4.54348 0.565699 4.80182 0.56543 5.06487V11.0649C0.565699 11.3279 0.635137 11.5863 0.766776 11.814C0.898415 12.0417 1.08763 12.2308 1.31543 12.3624L6.56543 15.3624Z" stroke="#6A7282" strokeWidth="1.13" strokeLinecap="round" strokeLinejoin="round"/>
</svg>
